<?xml version="1.0" encoding="UTF-8"?>
<svg version="1.1" viewBox="0 0 2000 2000" width="1280" height="1280" xmlns="http://www.w3.org/2000/svg">
<path transform="translate(0)" d="m0 0h2e3v2e3h-2e3z" fill="#567C8C"/>
<path transform="translate(329,279)" d="m0 0h10l16 4 11 6 11 9 10 12 9 15 7 17 5 20 6 36 5 28 5 19 4 12 8 15 11 13 15 11 25 12 28 8 17 3 18 1 14-2 12-5 11-9 7-7 11-14 9-12 13-19 10-15 13-19 14-19 10-11 7-8 10-10 14-9 10-4h16l14 5 14 10 11 11 8 11 4 8 1 3v14l-3 10-12 24-2 5 1 6 8 5 16 6 20 4h42l46-5 26-3 26-1 16 3 12 6 7 6 6 10 4 13v24l-3 15-5 13-7 12-8 10-12 11-13 8-14 6-14 3h-7v125l71-1 1-35 3-5 2-1 42-1h161l226 1 4 2 1 4v49l5 2 5 5 2 5 6 3 6 7 1 29v294l-1 64 4 1-8 2-1 8 6 4-1 11 43-1 11-6 7-3 11-1 8 2 10 6 7 8 4 10v14l-7 11-3 4 1 8 3 12v16l-4 16-8 16-11 12-9 6-12 6-18 6-14 3-19-1v109l-3 6-5 4-3 1h-502l-9-9 1-3 14-2h-19l-6-4-3-4v-2h467l33-1 1-2-55 1h-423l-28-1-8-7-1-3v-21h-106l-8-3-8-7-5-8-1-3-1-66 1-37 6-11 8-7 9-3h106l-1-4v-122l7-2 18-4 14-6 14-9 10-9 9-10 2-4h2l5 16 4 7 4 6h7l-6-31-6-24-4-10v-2l-8-2h-7l-16 5-22 7-15 6-6 2v3l7 2 2 4 9-1 19-7 11-3h3l-2 5-4 5-6 12-13 11-14 9-12 5-5 1-1-7v-66l-12 2h-145l-7-9-12-20-1-3h-10l1 6 12 23 1 2-17 1h-136l-8-16-9-17-10-18-8-16-8-17-10-24v-2h-24l-24 4-7 1-1-33-21 1-16-2-15-5-15-8-12-11-5-6-2-4-4-4-4-9-3-9-1-8v-10l4-16 8-20 14-30 7-18 1-10v-20l-4-18-5-12-8-16-9-12-11-10-16-9-16-6-50-14-16-6-16-9-12-11-11-14-6-11-4-11-3-10-4-17-2-16v-26l3-27 6-26 6-18 9-20 8-16 10-18 11-16 11-14 7-7 7-8 11-9 10-7 12-6z" fill="#FCFBFA"/>
<path transform="translate(329,279)" d="m0 0h10l16 4 11 6 11 9 10 12 9 15 7 17 5 20 6 36 5 28 5 19 4 12 8 15 11 13 15 11 25 12 28 8 17 3 18 1 14-2 12-5 11-9 7-7 11-14 9-12 13-19 10-15 13-19 14-19 10-11 7-8 10-10 14-9 10-4h16l14 5 14 10 11 11 8 11 4 8 1 3v14l-3 10-12 24-2 5 1 6 8 5 16 6 20 4h42l46-5 26-3 26-1 16 3 12 6 7 6 6 10 4 13v24l-3 15-5 13-7 12-8 10-12 11-13 8-14 6-14 3h-8v376l-1 20-1 9-5 5-4 5h-3v2l-2 1-9 1h-145l-7-9-12-20-1-3h-10l1 6 12 23 1 2-17 1h-136l-8-16-9-17-10-18-8-16-8-17-10-24v-2h-24l-24 4-7 1-1-33-21 1-16-2-15-5-15-8-12-11-5-6-2-4-4-4-4-9-3-9-1-8v-10l4-16 8-20 14-30 7-18 1-10v-20l-4-18-5-12-8-16-9-12-11-10-16-9-16-6-50-14-16-6-16-9-12-11-11-14-6-11-4-11-3-10-4-17-2-16v-26l3-27 6-26 6-18 9-20 8-16 10-18 11-16 11-14 7-7 7-8 11-9 10-7 12-6z" fill="#ECF8FC"/>
<path transform="translate(912,610)" d="m0 0h1v125l71-1 1-35 3-5 2-1 42-1h161l226 1 4 2 1 4v49l5 2 5 5 2 5 6 3 6 7 1 29v294l-1 64 4 1-8 2-1 8 6 4-1 11 43-1 11-6 7-3 11-1 8 2 10 6 7 8 4 10v14l-7 11-3 4 1 8 3 12v16l-4 16-8 16-11 12-9 6-12 6-18 6-14 3-19-1v109l-3 6-5 4-3 1h-502l-9-9 1-3 14-2h-19l-6-4-3-4v-2h467l33-1 1-2-55 1h-423l-28-1-8-7-1-3v-21h-106l-8-3-8-7-5-8-1-3-1-66 1-37 6-11 8-7 9-3h106l-1-4v-122l7-2 18-4 14-6 8-4 5 2 1 5v140l11 5 16 8 11 8 13 12 6 6v2h2l3 4v2h2l7 10 16 24 3 1v2l11 1 14 3-1-8v-11l7-1 72-7-1-25 2-1v26l15-2 1 3-3 16-5 14-2 2 17-3 22-6 34-9 16-3h8v-2l17-1 12-6 23-8 20-5 2-12 15 1-1-2v-6l4-1 5 1 1 7h12l2 3h9l1-481v-24h-419v251l-8 3-18 6-15 6-6 2v3l7 2 2 4 9-1 19-7 11-3h3l-2 5-4 5-6 12-13 11-14 9-12 5-5 1-1-7v-66l-1-2 3-1 5-7 3-2 1-9 1-20z" fill="#C8E6F4"/>
<path transform="translate(327,286)" d="m0 0h18l9 3 9 5 10 9 8 10 8 13 6 15 3 9 6 27 5 28 6 31 8 26 5 9 3 3 4 7 13 13 16 10 17 8 18 6 23 6 16 2h18l16-4 11-7 10-9 11-12 14-19 12-17 10-15 11-16 12-17 11-14 11-12 8-8 10-7 11-5 4-1h9l12 3 9 5 11 9 9 10 6 10 3 8v12l-5 13-12 22-1 7 4 7 10 6 16 6 13 3 8 1h42l24-2 52-6h31l12 4 9 7 5 7 4 12 1 8v19l-1 10-8 18-8 11-9 10-11 8-10 6-17 6-9 2h-4l-2-15-4-8-8-6-4-2-6-1h-56l-10-2-10-6-16-7-13-4-6-1h-25l-17 3-19 7-18 8-12 2h-198l-8 2-7 4-6 8-2 6-1 292h-29l-16-4-16-8-11-8-10-11-7-12-3-9v-19l4-16 5-13 12-26 6-15 5-17 1-5v-26l-4-15-5-13-8-15-8-10-11-11-16-10-16-7-32-9-21-6-16-6-13-7-8-6-10-10-9-14-6-12-6-19-3-18-1-12v-21l3-27 5-23 8-24 9-20 10-19 6-10 8-12 9-12 9-10 5-6 8-7 10-8 15-8z" fill="#567D8C"/>
<path transform="translate(766,1346)" d="m0 0h4v8l-38 3v3l25 2 14 2 3 9 6 8 6 5 7 2 106 1 1 21 3 5 5 4 28 1h478l-1 3-33 1h-464l-3-1 4 6 5 3h19l18 1v1l-28 1-4 1 2 4 6 6h502l6-3 3-4 3-5 1-1h34l26 5 3 2-1 3-2 1-23 2-17 4-33 1-13 2 2 3 3 1 13 1 14 4 6 1 18 1 11 3 2 2-1 5-4 4-3 1-16 1h-21v2l2 1 42 2 3 1-1 5-15 1 3 5 2 2v5l-5 3-30 4-58 5-52 2h-38l-28-1-22-2-7-4-5-5h-16l-38 2h-32l-11-1-90-2-26 1-59 4-52 4-16 1-46 1-64-2-10-1-23-1-3-1v-2h49l3 1 13-1 13 1 7-1h39l41-3 10-1v-2l-59-4-86-3-5 2h-18v-8l-22-1-32-2-8-2-5-4-2-8-6-1-27 2h-6l-1-1v-5l19-2 53-4 31-2-3-2-13-5-5-3v-2l-15-2-5-2v-4l9-3 1-3h-22l-44 4h-17l-2-2v-5l1-1 28-2 41-5-2-4-1-7 1-1 11-2v-2l-6-3-1-7 9-3h3l-1-4h-22l-45-1-9-2-2-2v-5l8-2 46-3 48-4 10-1v-2l-8-2h-32l-33-2-20-1-4-1 1-5 1-1 54-5z" fill="#5B5B5C"/>
<path transform="translate(1031,277)" d="m0 0h38l49 3 15 2 14 5 9 7 8 9 6 13 2 8 1 13 26 1 20 3 13 4 10 5 8 8 8 14 5 14 4 18v24l-3 12-6 12-4 5-11 7-16 5-6 1-22 1 11 13 8 12 1 7-7-1-13-5-16-8-20-12-6-2-19-1-26 1h-34l-11-4-10-6-8-7-9-12-6-10-5-12-20 12-16 8-7 1-1-4 5-9 11-16 2-3h-19l-16-2-14-5-8-6-6-8-5-12-2-8-1-9v-14l3-19 5-15 7-13 5-6 11-7 14-5 20-4z" fill="#C8E6F4"/>
<path transform="translate(1020,692)" d="m0 0h173l226 1 4 2 1 4v49l5 2 5 5 2 5 6 3 6 7 1 29v294l-1 64 4 1-8 2-1 8 6 4-1 12-8-1-5-5-8-3-2-2 1-3-2-3-1-15v-387l1-7h-2l-1 5-5 1h-285l-137-1-8-2-1-9v-9l-1-7 1-1 1-39 4-3z" fill="#FBFAFA"/>
<path transform="translate(1560,599)" d="m0 0h27l14 4 13 7 13 10 9 10 5 11 2 8 1 9v16l-2 19-6 24-8 26-2 9 1 11 6 12 12 14 8 9 4 7v9l-6 8-8 5-6 2h-17l-12-3-12-6-10-10-7-12-5-16-2-17 1-36 2-23 1-13v-28l-2-21-4-9-3-2-11 1-10 5-10 9-7 9-7 14-4 14v13l11 14 8 14 15 32 1 3v8l-7 11-7 5-8 2h-13l-16-3-12-5-10-7-10-10-7-12-3-10v-23l3-14 6-16 11-21 8-12 10-13 7-7 3-4h2l1-3 8-7 14-10 16-8z" fill="#FBFAF9"/>
<path transform="translate(1145,1284)" d="m0 0h1v26l15-2 1 3-3 16-5 14-2 2 17-3 22-6 34-9 24-4h22l17 3 52 11 26 5 9 1 2 4-1 12-2 15-3 10-2 1h-32l-74-1-76 1-35 1h-29l-37 1-35-1h-57l-4-1-23-2-15-3-1-13v-32l1-2 26-2h37l22 2 30 6-1-8v-11l7-1 72-7-1-25z" fill="#9BBDE2"/>
<path transform="translate(789,1245)" d="m0 0h122l10 3 7 5 3 6 1 10v99l-4 11-5 6-10 4-13 1-107-1-8-3-8-7-5-8-1-3-1-66 1-37 6-11 8-7z" fill="#FCFBFA"/>
<path transform="translate(1172,338)" d="m0 0h27l20 3 13 4 10 5 8 8 8 14 5 14 4 18v24l-3 12-6 12-4 5-11 7-16 5-6 1-22 1 11 13 8 12 1 7-7-1-13-5-16-8-20-12-6-2-19-1-26 1h-34l-11-4-10-6-8-7-9-12-6-10-4-11v-4l9-5 14-4 15-1 39-1 13-1 12-4 10-6 3-3h2l2-4 9-12 7-14 6-18z" fill="#FCFBFA"/>
<path transform="translate(505,922)" d="m0 0h11l4 8 11 26 8 16 10 19 10 18 8 15 10 21 7 12v4l-38 12-22 8-16 8-19 10-17 12-2 2h-4l-8-18-8-15-8-16-12-23-10-23-8-19-9-16-1-7 7-8 16-16 21-14 16-8 9-3 24-4z" fill="#E2DAD3"/>
<path transform="translate(1514,1172)" d="m0 0 12 1 11 6 8 9 4 10v14l-7 11-3 4 1 8 3 12v16l-4 16-8 16-11 12-9 6-12 6-18 6-14 3-19-1-14-6-8-6-2-1v77l-1 21-5 7h-3l1-3h2l2-5 1-47v-52l-9-11-7-11-6-16-3-16v-14l3-12 3-9h-2v-2l-3-1-4-8-1-5v-9l3-9 6-7 4-4 7-3 11-1 12 3 5 5 8 1 43-1 11-6 7-3z" fill="#AD6E6F"/>
<path transform="translate(933,136)" d="m0 0h13l8 3 6 5 5 8v16l-5 19-13 35-8 18-10 19-10 18-9 13-7 10-13 16-17 17-15 11-16 8-16 4h-15l-9-2-14-6-12-9-11-14-3-8-1-6v-13l5-12 6-9 5-6 11-8 12-6 13-4 22-3 36-3 12-3 4-5 3-9 3-16 5-30 6-18 7-13 8-9 11-7z" fill="#567D8D"/>
<path transform="translate(280,1042)" d="m0 0h2v2h2l5 11v8l-7 9-7 12-10 14-4 7h-2l-2 4-7 10-2 4-4 4-2 4 6-5 2-2 1-4h2l2-5 4-2 2-6h2l1-4 4-3h3l1 3-4 9h-2l-1 5-5 10-3 2-1 7 2 2h-2v2l2-1 3-5h2v-3h2l1-4 1-2h2v-3h2l1-5 2-3h2l1-5 6-9 4-7h2l1-4 2-4h2l2-7 3 1 7 15 13 31 8 19 4 9 3 1h10l16-4 30-5h13l4 6 5 4 14 5h12l9-4 6-5 3-5 3-3 21-5 16-6h2l-2 4-11 14-9 11-9 13-3 5 2 24 2 3 4-1 9-12 8-10 8-11 8-10h2l2-5h2l2-4 8-11 8-12 6-8 5-5h5l-6 10-13 18-10 14-11 16-13 18-7 9-8 11-3 3h-10l-24-4-8-2-15-2-2-1-18-2-32-5-2-1-17-2-2-1-27-4-18-3-20-4-16-3-17-4-24-7-10-4-4-9-4-16v-4l9 1 22 5h2l1-7-4 4-9-1-7-2-11-3 3-5 5-7 5-5 4-6h2l2-4 3-5h2l2-4 6-8h2l2-4 13-17 11-13 7-9z" fill="#D28D7B"/>
<path transform="translate(712,996)" d="m0 0 10 1 8 13 11 17 1 1h145l9-1 3-1 1 1v73l15-6 12-7 12-10 5-5 7-13 5-7-19 6-18 6h-5l-3-5-6-2-1-3 7-3 20-8 31-9 2-1h7l8 3 6 15 9 40 2 13h-8l-5-7-5-10-3-10v-3h-2l-2 5-9 10-7 7-14 9-14 7-15 4-6 1h-41l-25-5-18-6-18-8-18-11-14-10-14-12-18-18-9-12-8-11-11-21-1-6z" fill="#567C8C"/>
<path transform="translate(341,974)" d="m0 0h27l20 3 10 3 4 5 13 27 11 28 10 19 20 39 5 12v2l-7-1-18-4-8-1h-32l-19 3-23 7-9 4h-2l-8-24-10-24-10-21-11-28-12-29 1-5 8-5 21-7z" fill="#E2DAD3"/>
<path transform="translate(561,1272)" d="m0 0h29l20 4 13 5 12 8 8 9 7 14 2 14v12l-3 10-6 8-10 10-14 9-20 9-17 6-8 4-5 6-4 13-4 16-3 6-5 2-9-1-8-5-6-7-4-9-1-4v-13l4-12 8-11 8-8 19-13 33-22 13-11 5-5 3-4-2-7-5-4-11-4h-16l-12 3-11 6-5 17-16 31-3 3-6 2h-7l-8-4-7-9-6-13-2-10 1-12 5-13 9-10 11-7 13-5z" fill="#FAFAF9"/>
<path transform="translate(329,279)" d="m0 0h10l16 4 11 6 11 9 10 12 9 15 7 17 5 20 6 36 5 28 5 19 4 12 8 15 11 13 15 11 25 12 28 8 17 3 18 1 14-2 12-5 11-9 7-7 11-14 9-12 13-19 10-15 13-19 14-19 10-11 7-8 10-10 14-9 10-4h16l14 5 14 10 11 11 8 11 4 8 1 3v14l-3 10-12 24-2 5 1 6 8 5 16 6 20 4h42l46-5 26-3 26-1 16 3 12 6 7 6 6 10 4 13v24l-3 15-5 13-7 12-8 10-12 11-13 8-14 6-14 3h-7v-5l20-5 12-5 11-7 10-8 8-9 8-13 6-14 1-10v-19l-2-11-4-10-6-8-8-5-10-3h-31l-60 7-16 1h-42l-17-3-18-6-11-6-5-6-1-6 4-10 10-18 4-11v-12l-5-12-10-13-10-9-10-6-8-3-6-1h-9l-11 4-10 6-12 11-7 7-11 14-13 18-11 16-8 12-11 16-13 18-9 11-12 13-8 7-10 6-16 4h-18l-20-3-26-7-20-8-15-8-11-8-13-13-5-8-3-4-5-12-6-20-8-41-4-22-5-23-6-17-7-14-8-11-10-11-10-6-6-3-5-1h-18l-13 5-14 8-12 11-3 1-2 4h-2l-2 4-9 10-11 16-7 11-11 20-12 27-7 21-5 23-3 27v21l2 19 3 14 6 18 7 14 9 12 10 10 16 9 15 6 19 6 27 7 18 6 15 8 11 8 13 13 9 14 7 15 5 17 1 4v26l-4 16-6 16-9 20-8 18-5 16-1 6v19l5 13 7 10 9 10 14 9 11 5 16 4 29 1 1 4-2 2-21 1-16-2-15-5-15-8-12-11-5-6-2-4-4-4-4-9-3-9-1-8v-10l4-16 8-20 14-30 7-18 1-10v-20l-4-18-5-12-8-16-9-12-11-10-16-9-16-6-50-14-16-6-16-9-12-11-11-14-6-11-4-11-3-10-4-17-2-16v-26l3-27 6-26 6-18 9-20 8-16 10-18 11-16 11-14 7-7 7-8 11-9 10-7 12-6z" fill="#ECCCB4"/>
<path transform="translate(287,995)" d="m0 0 4 1 8 21 11 27 8 20 7 14 8 20 5 14 1 6-3-1-8-18-11-25-6-14-6-15-5-11-5-12v-5l-3 1v3h-4l2 10 4 7-1-6-2-9h3l4 10 2 3 2 7 2 6 4 6 4 11v3l-3 1-3-1 4 10h2l-2-4v-4h4l4 8 4 11 2 4 1 4 4 7 3 10 1 3h2l4 10 3 6 6-4 22-7 16-3 18-2h24l17 3 16 3-10-4-21-4h-34l-20 3-21 6-12 4v-4l15-7 20-6 21-3h22l18 2 16 4 11 4h6v-2l6-3h2l1-5-5 1 4-4 15-7 9-4h3l1-2 2 1 1-3h4v-2l19-9 30-10 14-3 8 11-1 2-39 5-26 7-21 9-9 5-2 2 19-9 7-2 18-6 23-5 25-3h7l1 4-1 1-40 5-25 6-13 5h-3l1 2 7-1h4l-1-2 15-5 21-4 28-3h7l1 4-1 1-17 1 1 1h18l4 1 3 5v4l-2 1-39 4-14 3-13 3-8 4-7 1-7 3-10 4-10 3-6 3-4 1-1 2-17 4-4 4-3 5-6 5-8 3h-12l-14-5-8-7-1-3h-13l-36 6-10 3h-5v-1l-7-2-3-5-5-12-6-15-6-13-4-10-8-19-5-12-7-15-12-28-1-8 11-3 1 2 2-5h2l-2-4-2 2-1-5z" fill="#577A88"/>
<path transform="translate(621,1119)" d="m0 0h44l14 1 9 3 8 7 4 9 1 10v50l-2 9-6 9-9 6-16 2h-40l-15-2-8-5-7-8-3-14v-21l1-35 4-10 8-7 6-3z" fill="#252424"/>
<path transform="translate(1076,546)" d="m0 0h60l10 2 7 4 6 8 2 4 1 6v57l-3 9-9 10-5 3-4 1h-64l-10-4-8-9-3-10v-57l3-10 4-6 7-6z" fill="#272525"/>
<path transform="translate(1444,1199)" d="m0 0 2 3 2 7 9 5 3-1 3-8v-5l8 2 13 7 8 8 7 11 5 13 1 4v8l-12 2v7l3 5 9 3-2 13-5 12-8 10-8 7-10 4-9 1-1-1-2-11-2-3h-7l-3 3-1 9-6-1-9-6-9-9-7-10-7-15-1-8 10-5v-8l-4-4-6-2 2-9 8-16 8-8 10-8 5-1 1-4z" fill="#FCFAF9"/>
<path transform="translate(787,842)" d="m0 0h8l10 5 6 7 5 8 4-1 4-5 5-2h6l9 5 2 3 2 18h12l6 5 3 6-2 10-7 9-7 7-13 8-12 5-10 2h-22l-13-2-16-7-6-4v-2l-4-2-7-10-3-7-1-9 2-8 2-4 9-6 6-1 9-17 6-7z" fill="#C9E7F5"/>
<path transform="translate(540,1117)" d="m0 0h5l-6 10-13 18-10 14-11 16-13 18-7 9-8 11-3 3h-10l-24-4-8-2-15-2-2-1-18-2-32-5-2-1-17-2-2-1-27-4-18-3-20-4-16-3-5-3-4-25v-7l18 4 39 10 18 4 71 8 49 7 13 1 2 6 2 16 2 3 4-1 9-12 8-10 8-11 8-10h2l2-5h2l2-4 8-11 8-12 6-8z" fill="#CDA37F"/>
<path transform="translate(1434,1321)" d="m0 0 10 3 4 2v110l-3 6-5 4-3 1h-502l-8-8 1-3 353 1 100-1h34l14-2 2-5 2-12z" fill="#E2DAD2"/>
<path transform="translate(712,996)" d="m0 0 10 1 8 13 11 17 7 10 11 12 7 8 7 7 17 13 13 8 16 8 10 4 15 4 12 2 15 1 24-2 7-1v-2l13-5 12-7 12-10 5-5 7-13 5-7-19 6-18 6h-5l-3-5-6-2-1-3 7-3 20-8 31-9 2-1h7l8 3 6 15 9 40 2 13h-8l-5-7-5-10-3-10v-3h-2l-2 5-9 10-7 7-14 9-14 7-15 4-6 1h-41l-25-5-18-6-18-8-18-11-14-10-14-12-18-18-9-12-8-11-11-21-1-6z" fill="#272627"/>
<path transform="translate(1306,592)" d="m0 0h71l19 1 2 4 1 30v24h-110l1-37 1-18 2-3z" fill="#CF3E4F"/>
<path transform="translate(1098,703)" d="m0 0h14v1l7 1v1h-7v2l11 3 3 4 1 4v17l-1 5 3 1v-5l3-3 3-18h2l1-4 7-3h10l9 1 4 2 1 4 3 1 1 3v20l-2 5h-18l-15-1-3-1-1-6v12l-8 2v1l-6 1h-13l-15-1h-18v-2h-33l-3-2v-2l4-2-1-3-1-35 8-1h13l8 1 2-1h27z" fill="#F5F8F8"/>
<path transform="translate(280,1042)" d="m0 0h2v2h2l5 11v8l-7 9-7 12-10 14-4 7h-2l-2 4-7 10-2 4-4 4-2 4 6-5 2-2 1-4h2l2-5 4-2 2-6h2l1-4 4-3h3l1 3-4 9h-2l-1 5-5 10-3 2-1 7 2 2h-2l1 3-1 3 11 2 8 3 12 2 24 6 5 1v2h9l25 3 58 7 28 4 1 1 24 3 1 2-19-1-20-2-57-7-37-4-30-7-43-11-2-1 5 32v1l-10-1-13-4-20-6-4-2-4-9-4-16v-4l9 1 22 5h2l1-7-4 4-9-1-7-2-11-3 3-5 5-7 5-5 4-6h2l2-4 3-5h2l2-4 6-8h2l2-4 13-17 11-13 7-9z" fill="#5B595A"/>
<path transform="translate(496,918)" d="m0 0h22l3 3 13 31 16 32 14 25 9 19 5 13 9 15v6l-6 2 1 7 3 1 7 10 2 13 3 6-1 3-4-4-2-1h-19v-2l17-2v-3l-18 1-22 3-16 3-13 4-1 3h-7l-6 1 1-3 20-7 21-5 40-5v-4l-38 5-24 6-12 5-8 2-17 8-2-1 9-6 17-8 18-6 16-4 39-5-7-11-17 4-30 10-14 7h-2v2l-4 1-1 2-6 2-9 4-16 8h3v4h-2v2l-6 3h-2v2l-6 1-18-6-15-3-12-1h-22l-21 3-20 6-13 6h-2l1 3 24-8 19-4 9-1h34l21 4 10 4 1 2-26-5-8-1h-24l-25 3-19 5-16 6-3 3-6-16v-2h-2l-3-7-4-10-2-2-1-2-1-6-4-8-3-8-1-4h-4l2 8-3 1-3-8v-3h6l-6-16-2-2-1-4-3-5-2-8-4-8-2-3 2 9 1 6-2 2-3-8-1-1-1-10 3-1 2-4 2 1 3 9 6 14 4 10 9 22 11 24 7 17 2 4 2 1-2-4-3-11-8-20-8-18-6-13-20-50-2-6-2 2 1-8 1-2h2v-2h2v-2h4v-2l8-4 15-4 12-2 28-1 20 2 18 4h2l2-6 6-7 4-4h2v-2h2l2-4 12-10 13-8 14-8 10-5 21-4zm9 4-24 3-17 4-16 8-16 10-10 8-19 19-1 6 14 28 10 24 10 21 10 19 14 27 6 14 5-1 12-9 15-9 21-11 24-9 34-11 7-2-1-6-10-18-12-25-13-23-12-22-13-29-6-15-1-1zm-164 52-19 3-21 7-9 6 1 6 11 27 12 30 14 30 11 30 2 7 30-10 15-3 8-1h32l18 3 10 3h5l-3-10-13-26-12-22-9-19-11-27-12-25-3-3-15-4-15-2z" fill="#363B3E"/>
<path transform="translate(715,357)" d="m0 0h16l14 5 14 10 11 11 8 11 4 8 1 3v14l-3 10-12 24-2 5 1 6 8 5 16 6 20 4h42l46-5 26-3 26-1 16 3 12 6 7 6 6 10 4 13v24l-3 15-5 13-7 12-8 10-12 11-13 8-14 6-14 3h-7v-5l20-5 12-5 11-7 10-8 8-9 8-13 6-14 1-10v-19l-2-11-4-10-6-8-8-5-10-3h-31l-60 7-16 1h-42l-17-3-18-6-11-6-5-6-1-6 4-10 10-18 4-11v-12l-5-12-10-13-10-9-10-6-8-3-6-1h-9l-11 4-10 6-12 11-7 7-11 14-13 18-11 16-8 12-11 16-13 18-9 11-12 13-8 7-10 6-16 4h-18l-14-2 4-2-5-1 2-2 7-1 18 1 14-2 12-5 11-9 7-7 11-14 9-12 13-19 10-15 13-19 14-19 10-11 7-8 10-10 14-9z" fill="#EECEB6"/>
<path transform="translate(1438,762)" d="m0 0 4 1 6 7 1 29v294l-1 64 4 1-8 2-1 8 6 4-1 12-8-1-2-2-1-28v-261z" fill="#F9FAFA"/>
<path transform="translate(1307,528)" d="m0 0h72l2 1v63l-4 1-70-1v-14l1-1h36l30-1h-2-65z" fill="#E2DAD2"/>
<path transform="translate(1658,836)" d="m0 0h15l12 4 10 6 9 9 4 8 1 4v13l-6 12-5 6-10 6-10 3h-14l-14-3-11-6-7-7-5-9-1-4v-12l3-9 6-8 9-7 8-4z" fill="#F9F9F8"/>
<path transform="translate(685,845)" d="m0 0h2l1 6v27l15-2h4l-1 5-1 1-1 12-5 15-6 12-2 2-11 1h-80l-3-2-5-17-2-10v-5l6-2 42-6 44-4h4z" fill="#D13E4E"/>
<path transform="translate(952,1250)" d="m0 0 10 3 17 9 11 8 13 12 6 6v2h2l3 4v2h2l7 10 16 24 3 2-27-2h-37l-14 1h-12l-1-6v-74z" fill="#E2DAD2"/>
<path transform="translate(1289,651)" d="m0 0h110l1 1v36l-51 1h-54l-7-1v-26z" fill="#FBF3E1"/>
<path transform="translate(1417,1420)" d="m0 0 3 1-1 3h-4v2l-12 2-2 2 21 1v1l-500 1-6-4-3-4v-2h501z" fill="#E2DAD2"/>
<path transform="translate(933,136)" d="m0 0h13l8 3 6 5 5 8v16l-5 19-13 35-8 18-10 19-10 18-9 13-7 10-13 16-17 17-15 11-16 8-16 4h-15l-9-2-14-6-12-9-11-14-3-8-1-6v-13l5-12 6-9 5-6 11-8 12-6 13-4 22-3 36-3 12-3 4-5 3-9 3-16 5-30 6-18 7-13 8-9 11-7zm2 6-10 5-9 9-8 16-5 20-6 36-4 12-4 6-5 4-12 3-7 1-31 2-21 3-17 6-14 9-8 9-5 11-1 4v16l3 8 6 8 9 9 10 6 12 4h21l16-5 13-7 14-11 13-13 11-14 10-13 12-19 9-16 11-23 8-19 9-26 3-9 1-7v-13l-4-6-6-5-3-1z" fill="#EDCDB6"/>
<path transform="translate(1514,1172)" d="m0 0 12 1 11 6 8 9 3 7v7l-5-1v-6l-4-2v-2l-17 2-1 3-6 1v3h-2l-2 6h-2v2h-5l-2-4-4-2v-2l-3-1-4-4-3 3 5 5 9 10 6 10v5l-4 4-9-9-7-9-7-6-12-6v-2l-5-2-9-2-17 1-11 4-8 6-6 5-8 13h-2l-1 2v-4h-2v-2l-3-1-4-8-1-5v-9l3-9 6-7 4-4 7-3 11-1 12 3 5 5 8 1 43-1 11-6 7-3z" fill="#D48E7C"/>
<path transform="translate(1424,1314)" d="m0 0 5 2 5 4v97l-2 14-3 4-16 2h-49l-84 1-352-1-2 1 1-3 14-2v-1l460-1-5-1v-1l10-2 9-1v-2l4-1 1-2-2-1 4-5 1-24z" fill="#C8E6F4"/>
<path transform="translate(1173,338)" d="m0 0h26l20 3 13 4 10 5 8 8 8 14 5 14 4 18v24l-3 12-6 12-4 5-11 7-16 5-6 1-22 1 11 13 8 12 1 7-7-1-13-5-16-8-20-12-6-2-14-1v-1l6-1 2-3 9 1 18 6 10 6 8 1-2-10 2-4 16-1 9-4 11-4 11-6 3-1 2-4 4-11 2-17v-9l-4-8-2-8-7-8-5-3-3-5v-2h-2v-2l-3-3v-3h-2l-6-10-1-4-4-2-10-6-2-2-22 1-4-6 1-2h-5z" fill="#FBF4E1"/>
<path transform="translate(1338,1280)" d="m0 0 8 1 1 7h12l2 3h10l1 1v43l-1 5-5 1-46-9-36-8-13-2h-14l-8-1v-1l17-1 12-6 23-8 20-5 2-12 15 1-1-2v-6z" fill="#E2DAD2"/>
<path transform="translate(601,747)" d="m0 0h87l1 1v27l-4 2h-93l-6-1-1-2v-26z" fill="#5A6063"/>
<path transform="translate(288 1e3)" d="m0 0 3 2v3h-2l-1 7-2-4-7 3h-4l3 10 9 21 8 19 4 7 2 6 10 24 5 11 7 17 5 13 3 5 2 4 10 1-4 2-8-1-3-5-7-18-7-15-13-31-3-6-2-1-1 5-3 3-3 7h-2l-2 4-6 11-3 6h-2l-2 5-1 3h-2v3h-2l-2 6h-2v3l-3 2-2 4h-2l-1-7 2-5 3-1 2-7 2-1 2-7h2l1-6 2-4v-2l-6 3-2 4h-2v4h-2v2l-5 5-1 2h-2l-1 5-5 5-3 1 2-5 2-3h2l2-6 9-12h2l2-5 14-21 9-14 2-2v-8l-4-8v-3h-2v-2h-2l-2 5-7 8-11 14-9 11-8 11h-2l-2 4-6 8h-2l-2 5-3 4h-2l-2 4-5 7h-2l-2 4-5 7 6 2 10 2 1 1 9 1 5-4-2 8-3 1-21-5-9-2 7 26 1 3 10 3 24 7 17 4 25 5 23 4 24 4 9 1 7 2 12 1 8 2 32 5 12 1 7 2 16 2 7 2 19 3h10l9-11 7-10 4-3-2 5-15 20-2 2h-15l-35-6-46-7-90-15-31-7-34-9-12-4-4-4-5-14-1-5v-12l11-13 9-11 3-5h2l2-5 10-11 11-14 13-16 9-10 7-11-2-9-4-10v-6l7-3h8v-3h-2z" fill="#272525"/>
<path transform="translate(1449,1195)" d="m0 0 12 1 8 4-4 1-2-1 1 5-4 9-3 1-9-5-2-3-2-7h-2l-1 4-8 4-14 13-8 16-3 9 6 1 5 5v8l-8 5h-3l4 13 8 15 12 13 9 6 6 2v-9l4-4h7l3 4 2 11 4 2-10 3-6 1h-15l-10-7-2-1v77l-1 21-5 7h-3l1-3h2l2-5 1-47v-52l-9-11-7-11-6-16-3-16v-14l3-12 2-5h2v-2h2l2-5 6-9 8-7 8-5 9-3z" fill="#D28D7B"/>
<path transform="translate(1145,1284)" d="m0 0h1v26l15-2 1 3-3 16-5 14-2 2-5 1h-30l-29-3-21-4-1-8v-11l7-1 72-7-1-25z" fill="#D03F4F"/>
<path transform="translate(1100,709)" d="m0 0h14l9 2 3 4 1 4v17l-1 5 3 1v-5l3-3 3-18h2l1-4 7-3h10l9 1 4 2 1 4 3 1 1 3v20l-2 5h-18l-15-1-3-1-1-6v12l-7-2-29-1-5-3-2-3-1-6v-12l2-8 4-4z" fill="#C9E7F5"/>
<path transform="translate(597,1104)" d="m0 0 2 4-2 2-15 2-27 3h-6l-2 5-9 12-16 23-11 14-8 11-3 2 2-4 13-19 13-18 10-14 6-9-5 1-6 6-3 5-8 12-10 13-1 2h-2l-2 5h-2l-2 4-8 10-7 9-13 17-4 5-4-1-2-3-2-25h2l2-6 9-12 13-16 9-12-18 7-4-1 9-4 7-3 9-3 10-3 6-3h5l4-3 5-2 16-3 9-2 41-4z" fill="#33383C"/>
<path transform="translate(280,1042)" d="m0 0h2v2h2l5 11v8l-7 9-7 12-10 14-4 7h-2l-2 4-7 10-2 4-4 4-6 8-2 5-4 1-7-1-7-2-11-3 3-5 5-7 5-5 4-6h2l2-4 3-5h2l2-4 6-8h2l2-4 13-17 11-13 7-9z" fill="#D28D7B"/>
<path transform="translate(515,1440)" d="m0 0h14l12 6 7 8 4 10v15l-4 8-4 5-8 4-10 1-11-4-7-6-7-12-2-6v-12l4-8 8-7z" fill="#FAFAF9"/>
<path transform="translate(1e3 703)" d="m0 0h98v2l-27 1-6 1-4-1h-21l1 3 1 31 1 4-2 2h-3v2l9 1 27 1v2h-41l-3-1h-8l-4 1h-18v-3l-2-1-1-11-2-4v-20l5-5-2-4z" fill="#FDF5E2"/>
<path transform="translate(1307,528)" d="m0 0h72l2 1v29l-1 1h-73z" fill="#F8F7F6"/>
<path transform="translate(1342,479)" d="m0 0 4 1 5 5 3 5 2 1 2 4 2 1 2 4 2 1 3 5 4 3 1 3 3 2 4 7 3 4-1 3h-74v2l-4-1-1-5 9-10 12-13 9-11 8-8z" fill="#D03C4E"/>
<path transform="translate(638,1148)" d="m0 0h23l6 3 5 8 1 16-1 9-5 8-4 3-4 1h-22l-8-4-4-5-2-9v-12l2-9 4-6z" fill="#2F3032"/>
<path transform="translate(368,1041)" d="m0 0 7 1 5 11 11 30 1 5-7 2-15 3-12 3-5-1-8-20-9-24 1-4 16-4z" fill="#CEA580"/>
<path transform="translate(1347,1499)" d="m0 0 48 3 36 3-1 4-50 4-47 2h-37l-38-2-8-2-5-3v-3l19-2z" fill="#567D8D"/>
<path transform="translate(695,571)" d="m0 0h6v1l9 1-4 1-1 3-11 3h-31l-8 2-14 1h-31l-21-4-2-1v-2l-10-1-1 3-5 2h-8l-5-5-2 4-2 1-19 1-15 1-12-2h-18l-7 3-6 5-8 16-1 3 1 2v10l1 3-3 7h-1l-1-36 3-8 7-8 8-4 6-1h198z" fill="#F8FAFA"/>
<path transform="translate(1103,1284)" d="m0 0 3 1v4l34-4h4l1 3v22l-2 1-67 7h-10v9h-1l-1-16h-2l-4-9-1-4 3-1v2h2l3 10 1 1-1-10-1-8h3v7l4-1 9-3 16-4h4l2-6z" fill="#F7F8F7"/>
<path transform="translate(698,747)" d="m0 0h53l8 1v29h-61l-1-1-1-21 1-7z" fill="#5D6367"/>
<path transform="translate(1341,1172)" d="m0 0 4 2 9 11v3h-2l1 8 6 2v2l-8 1v2l-7 1 3 2 11 1 1 1v19h-22v8l-4-1 1-8h-9l-1-15h-11l-2-2-7-1-2-7 1-4 6-2 1-7 2-1 10 1 4-1v-2l8-5z" fill="#C7E2EE"/>
<path transform="translate(768,748)" d="m0 0h63l1 1v26l-1 1-52 1h-8l-3-1z" fill="#587E8E"/>
<path transform="translate(504,1108)" d="m0 0 3 1-1 3-18 8-15 8-7 3-8-1-14-3-9-1h-20l-30 3-30 6-8 2h-7l-6-10-5-11 1-5 2 4 1 3h2l4 10 3 6 6-4 22-7 16-3 18-2h24l17 3 16 3-10-4-21-4h-34l-20 3-21 6-12 4v-4l15-7 20-6 21-3h22l18 2 16 4 11 4h6v-2l6-1 2 4 9-4 2-2 7-1 4-4z" fill="#E1DCD7"/>
<path transform="translate(968,879)" d="m0 0h9l5 3 3 4h5l1-1h6l2 3 2 7 8 4 1 1v6l-7 8-8 6-6 2h-15l-10-4-8-6-2-5v-11l7-5 6-11z" fill="#C9E7F5"/>
<path transform="translate(909,1420)" d="m0 0h505l-1 3-33 1h-464l-7-3z" fill="#567D8D"/>
<path transform="translate(677,849)" d="m0 0h3v2l-12 2-30 1-1 3 1 4 1 20-1 2-42 6h-3v-2h-2l-2-7-7-15v-2h3l6 16 2 4 3 1-7-28 1-2 12 1 11 2 7-3 7 1 8-1v-4l6 1h20z" fill="#F4F4F3"/>
<path transform="translate(1434,758)" d="m0 0 5 4-1 130v288l-7-3 2-1z" fill="#E3DAD2"/>
<path transform="translate(1437,1323)" d="m0 0 7 1 4 2v110l-3 6-5 4-3 1h-10l2-7 6-9 1-5z" fill="#FCFBFA"/>
<path transform="translate(292,1016)" d="m0 0 3 1 3 9 6 14 4 10 9 22 11 24 7 17 2 4 2 1 1-4-1-6 2 3 2 9 17-7 17-5 19-3h32l18 3 15 4 1-2v2h2v4h-2v-2l-4 1-3 1-16-4-18-2h-22l-21 3-20 6-13 6h-2l1 3 24-8 19-4 9-1h34l21 4 10 4 1 2-26-5-8-1h-24l-25 3-19 5-16 6-3 3-6-16v-2h-2l-3-7-4-10-2-2-1-2-1-6-4-8-3-8-1-4h-4l2 8-3 1-3-8v-3h6l-6-16-2-2-1-4-3-5-2-8-4-8-2-3 2 9 1 6-2 2-3-8-1-1-1-10 3-1z" fill="#394044"/>
<path transform="translate(681,846)" d="m0 0h4l1 4v28l-4 1-35 3h-9l-1-21-1-6 2-2 30-1 12-1v-2l-8 2h-9l2-2 7-1 4-1z" fill="#FAFAF9"/>
<path transform="translate(1424,1314)" d="m0 0 5 2 5 4v97l-2 11-3 3-7 1-21-1-5-1v-1l10-2 9-1v-2l4-1 1-2-2-1 4-5 1-24z" fill="#FBFBFA"/>
<path transform="translate(577,1062)" d="m0 0 4 1 1 8 3 1 7 10 2 13 3 6-1 3-4-4-2-1h-19v-2l17-2v-3l-18 1-22 3-16 3-13 4-1 3h-7l-6 1 1-3 20-7 21-5 40-5v-4l-38 5-24 6-12 5-8 2-17 8-2-1 9-6 17-8 18-6 16-4 39-5-7-11-17 4-30 10-14 7h-2v2l-4 1-1 2-6 2-9 4-16 8h3v4h-2v2l-6 3h-2v2l-5-1-2-3 1-4v2l5-2 12-9 15-9 21-11 24-9z" fill="#3B4144"/>
<path transform="translate(1015,792)" d="m0 0 6 1 3 6 6-1 3-6 4 2 5 9 6 2 2 3-1 8-7 8-7 4-4 1h-13l-10-5-5-5-1-3v-10l6-4 4-8z" fill="#C9E7F5"/>
<path transform="translate(1449,1195)" d="m0 0 12 1 8 4-4 1-2-1 1 5-4 9-3 1-9-5-2-3-2-7h-2l-1 4-8 4-14 13-8 16-3 9 6 1 5 5v8l-8 5h-3v8l-2 3-3-3-3-7-1-10 2-15 2-10-1-4 1-2h2l2-5 6-9 8-7 8-5 9-3z" fill="#AC6D6E"/>
<path transform="translate(272,1051)" d="m0 0v3l-13 16-11 14-5 7h-2l-2 4-6 8h-2l-2 5-3 4h-2l-2 4-5 7h-2l-2 4-5 7 6 2 10 2 1 1 9 1 5-4-2 8-3 1-21-5-9-2 7 26 1 3 10 3 24 7 17 4 25 5 23 4 24 4 9 1 7 2 12 1 8 2 32 5 12 1 7 2 16 2 7 2 19 3h10l9-11 7-10 4-3-2 5-15 20-2 2h-15l-35-6-46-7-90-15-31-7-34-9-12-4-4-4-5-14-1-5v-12l11-13 9-11 3-5h2l2-5 10-11 11-14 13-16z" fill="#282626"/>
<path transform="translate(1100,709)" d="m0 0h14l9 2 3 4 1 4v17l-4 9-2 1h-23l-5-3-2-3-1-6v-12l2-8 4-4z" fill="#D04050"/>
<path transform="translate(1053,710)" d="m0 0h23l5 4 2 4v16l-2 7-5 4h-23l-4-2-2-4v-23l3-5z" fill="#567D8D"/>
<path transform="translate(685,845)" d="m0 0h2l1 6v27l15-2h4l-1 5-1 1-1 3-13 1-27 3-10 3 3 1v5h-7l-1-4 1-1h-19l-19 3-6 3h-15l-1-9 6-2 42-6 44-4h4z" fill="#5C7C8B"/>
<path transform="translate(966,473)" d="m0 0 10 4 9 7 7 11 4 13v24l-3 15-5 13-7 12-8 10-12 11-13 8-14 6-14 3h-7v-5l20-5 12-5 11-7 10-8 8-9 8-13 6-14 1-10v-19l-2-11-4-10-6-8-8-5-3-1-6-6 6 1z" fill="#F0CFB6"/>
<path transform="translate(1e3 703)" d="m0 0h98v2l-27 1-6 1-4-1h-21l1 3 1 31 1 4-2 2h-3v2l9 1 27 1v2h-41l-3-1h-8l-4 1h-18v-3l-2-1-1-11-2-4v-20l5-5-2-4zm21 5-14 1-2 2-1 27 1 7 6 2h20l5-3 4-1-1-14v-18h-2v-2z" fill="#E3DAD3"/>
<path transform="translate(1308,577)" d="m0 0h52l13 1 1 11 1-11 5-1 1 1v14l-4 1-70-1v-14z" fill="#D7DCDC"/>
<path transform="translate(752,558)" d="m0 0h26l23 6 4 3 8 3 1 2-22 1h-48l-37-1 3-2 10-3 19-6z" fill="#567D8C"/>
<path transform="translate(953,1262)" d="m0 0 5 2 10 8 3 5 1 7v9h2l4 6 5 4 2 1v2l4 2 13 11 7 6v2h-27l-6-6v-2h-2v-2h-2l-8-11-2-10 1-18-4-8-1-3-4-1z" fill="#D0A781"/>
<path transform="translate(1313,711)" d="m0 0h9l8 2 3 4 1 3v16l-5 6-6 2h-13l-5-2-4-8v-13l4-8z" fill="#FBFAF9"/>
<path transform="translate(1451,1226)" d="m0 0h6l4 3 2 6 1 15 16 2 4 3 1 4v7l-2 1h-23l-9-3-5-6v-26l3-5z" fill="#5B5D5F"/>
<path transform="translate(991,1104)" d="m0 0h6l6 5 5 6 3 3v7l-5 5-4 3-6 2h-12l-10-5-5-6v-6l10-10 12-3z" fill="#C9E7F5"/>
<path transform="translate(1241,711)" d="m0 0h10l8 2 4 5 1 5v10l-3 7-4 3-4 1h-13l-5-3-3-4-1-4v-10l2-7 4-4z" fill="#FAFAF9"/>
<path transform="translate(838,968)" d="m0 0 4 2 11 9 13 9-1 3-18 6-14 4h-5l-8-13-4-5 1-4 13-7z" fill="#D0A781"/>
<path transform="translate(1344,962)" d="m0 0h5l8 9 4 5-1 9-7 6-4 2h-16l-5-2-7-8-1-7 6-4 2-4 5-1h5z" fill="#C9E7F5"/>
<path transform="translate(489,572)" d="m0 0h53l21 1-3 2h-2l-2 4-2 1-19 1-15 1-12-2h-18l-7 3-6 5-8 16-1 3 1 2v10l1 3-3 7h-1l-1-36 3-8 7-8 8-4z" fill="#F6F9FA"/>
<path transform="translate(941,470)" d="m0 0h10l13 2 2 1v2h-4l4 4-7-1h-31l-60 7-16 1h-40v-1l11-1 1-1 8-1-11-1v-1l32-1 46-5 26-3z" fill="#E1D7CE"/>
<path transform="translate(1139,1288)" d="m0 0h6v22l-2 1-28 3h-9v-11l-1-8v-4l27-2z" fill="#F9F9F9"/>
<path transform="translate(204,1138)" d="m0 0 9 1 18 4 3 3 4 15 3 8v5h-9l-18-6-4-4-6-22z" fill="#CBA27F"/>
<path transform="translate(532,1119)" d="m0 0 1 4-3 3h-2v3h-2l-2 5-7 10-3 2-3 5-6 7-3 5h-2v3l-5 5-8 9-11 14-5 7h-2l-2-9v-13l3-5 2-5 3-2 4-7 5-4 13-17 7-9 5-2-1 5-11 13-8 10-9 10-6 8-3 6 5-5 7-9 12-12 1 3-2 4-4 6h-2v2l-5 5-8 10h-2l-1 6 5-5 11-13 8-10 9-11 7-9 9-11 4-8z" fill="#CEDCE2"/>
<path transform="translate(1422,758)" d="m0 0h2v410l-1 5h-2v-413z" fill="#567D8D"/>
<path transform="translate(1420,1174)" d="m0 0 11 2 5 2 4 5-4 2-9 2-9 6-11 9-5 6-4 7-3 1-3-9v-9l3-9 6-7 4-4 7-3z" fill="#D5917D"/>
<path transform="translate(1151,469)" d="m0 0 9 1 18 6 10 6 8 1-2-10 2-4h25v1l-22 1 11 13 8 12 1 7-7-1-13-5-16-8-20-12-6-2-14-1v-1l6-1z" fill="#F8F1E1"/>
<path transform="translate(1145,1284)" d="m0 0h1v26l15-2 1 3-1 6-23 1-7 1h-9v2h-2v6h-6v-4h-15l-26 3h-7v-8l7-1 72-7-1-25z" fill="#5A7E8E"/>
<path transform="translate(254,1145)" d="m0 0h10l11 4 12 2 24 6 5 1v2h9l25 3 58 7 28 4 1 1 24 3 1 2-19-1-20-2-57-7-37-4-30-7-43-11z" fill="#5C676D"/>
<path transform="translate(1046,415)" d="m0 0 4 1-5 5-1 7 6 12 13 15 6 7 6 5 1 4-2 2-5-1-11-6-9-8-9-12-6-10-4-11v-4l9-5z" fill="#FBF4E2"/>
<path transform="translate(719,986)" d="m0 0h3l1 5 5 2 7 9 12 16 1 2h4v2l-9 5-6-4-12-20-3-4v-2h-10l1 6 12 23 1 2-26-1-1-2h5v-2l2-2 4-5-2-14-1-3 3-7 3-3z" fill="#FBFBFA"/>
<path transform="translate(753,552)" d="m0 0h25l16 4 15 6 14 8 3 2-5 1h-7l-3-3-9-4-9-3-15-4h-26l-20 5-12 4-10 3h-3v2h-7l-1-3 23-10 14-5z" fill="#F0CEB5"/>
<path transform="translate(496,918)" d="m0 0h22l3 3 13 31 16 32 14 25 9 19 5 13 9 15v6l-4 2-3-1 1-2h3l-4-10-8-14-12-25-13-23-12-22-13-29-6-15h-20v-1l6-1v-1l-6-1z" fill="#33373A"/>
<path transform="translate(1443,1186)" d="m0 0h5l-1 3 2 1v1l4-1h8l13 5 5 3v2l4 1 5 4 1 6-7-2-13-7v-2l-5-2-9-2-17 1-11 4-8 6-6 5-8 13h-2l-1 2v-4h-2l1-2 7-11v-2l-2-4 6-5 3-1v4l10-9 11-6z" fill="#CFA17F"/>
<path transform="translate(576,1067)" d="m0 0 3 1 6 9v3l-39 5-26 7-21 9-8 4-3-1 3-3 7-4 9-2 1-2 2 1 1-3h4v-2l19-9 30-10z" fill="#E2DBD4"/>
<path transform="translate(1355,1207)" d="m0 0 4 1v19h-22v8l-4-1 1-8h-9v-18z" fill="#CF4050"/>
<path transform="translate(1386,712)" d="m0 0 7 1 5 4 3 2h-2l1 2v17l-3 5-4 1h-10l-4-2-2-5v-19z" fill="#F8F8F7"/>
<path transform="translate(1452,1157)" d="m0 0h33l5 3 1 7-3 3-3 1-37 1-6-4 1-8 3-2z" fill="#CF8E7B"/>
<path transform="translate(597,1104)" d="m0 0 2 4-2 2-15 2-27 3h-6l-2 5-9 12-16 23-11 14-8 11-3 2 2-4 13-19 13-18 10-14 6-9-5 1-6 6-3 5-8 12-10 13-1 2h-2l-2 5h-2l-2 4-5 6-3-2 3-4h2v-3l3-2 4-7 5-5 3-5h2l2-5 7-10h2v-3l4-3v-3l-5 3h-2l-2 6-6 8-8 9-2-1 9-13 4-7-6 2h-7l10-5h5l4-3 5-2 16-3 9-2 41-4z" fill="#262425"/>
<path transform="translate(646,751)" d="m0 0h39v10l-3 4h-3l-2-2-4 1v-6h7l2 2-1-4-12-1v10l-3-1v-8l-5-1 1 9-1 2h-2v-6l-1-4-8-1 1 9-4 3-1-2v-9h-3v7l-3 3-1-2 1-7-2 1-2 9-3-4v-7h-3v9l-2 1v-10h-2v11h-3l-2-10-1 7-5 1 1-7h-3v8l-3-1v-11h-4v-2h29z" fill="#6E92A2"/>
<path transform="translate(860,1264)" d="m0 0h9l5 3 1 2v14l-5 5-4 3-1 7-3 3-7 1 2-4 4-3-1-6-6-5-3-5-4-1-4 1-1 4-3 1 1-7 4-3 5 1 2 1 2-7 4-4z" fill="#393C3F"/>
<path transform="translate(1164,712)" d="m0 0 5 2v2l3 1 1 3v20l-2 5h-18l-15-1-3-1-1-8h14l7 2v-2h2v-6l3-3 1-4-2-1 4-3v-5z" fill="#E3DAD1"/>
<path transform="translate(272,1051)" d="m0 0v3l-13 16-11 14-5 7h-2l-2 4-6 8h-2l-2 5-3 4h-2l-2 4-5 7h-2l-2 4-5 7 6 2 10 2 1 1 9 1 5-4-2 8-3 1-21-5-9-2 7 26 1 3 10 3 24 7 9 3-4 1-27-7-12-4-4-4-5-14-1-5v-12l11-13 9-11 3-5h2l2-5 10-11 11-14 13-16z" fill="#272525"/>
<path transform="translate(638,1148)" d="m0 0h23l6 3 5 8 1 16-1 9-5 8-4 3-4 1h-22l-8-4-4-5-2-9v-12l2-9 4-6zm9 3-12 1-5 3-2 5-1 8v11l4 10 6 3h23l6-4 2-6v-21l-3-7-3-2z" fill="#F2F4F4"/>
<path transform="translate(368,1041)" d="m0 0 7 1 5 11 11 30 1 5-7 2-15 3-12 3-5-1-8-20-9-24 1-4 16-4zm-10 5-10 1-8 2v5l5 11 6 18 4 9 8-1 16-4 9-1-1-7-5-11-3-8-4-10-3-4z" fill="#34383B"/>
<path transform="translate(859,572)" d="m0 0h30l8 2 9 6 5 7 2 7v16l-2 4-3-3v-9l-4-10-9-7-12-5-10-2-2-2-39-1 1-2z" fill="#F7F9FA"/>
<path transform="translate(1325,1237)" d="m0 0 34 1 1 13-7 3 1 5-4 1 1-7h-27v-15z" fill="#D04050"/>
<path transform="translate(658,883)" d="m0 0 6 1-4 3v1h-6l-7 2-9 1-7 2-19 3-6 3h-15l-1-9 6-2 30-4h17z" fill="#5A7F8F"/>
<path transform="translate(1324,1263)" d="m0 0h35l1 1v13l-17 1h-19l-1-1v-13z" fill="#CF4753"/>
<path transform="translate(577,1062)" d="m0 0 4 1-2 4-31 9-19 7-12 6h-2v2l-4 1-1 2-6 2-9 4-16 8h3v4h-2v2l-6 3h-2v2l-5-1-2-3 1-4v2l5-2 12-9 15-9 21-11 24-9z" fill="#374045"/>
<path transform="translate(1578,613)" d="m0 0h17l5 3 6 9 4 12 1 5v10l-2 14-2-2-7-24-6-12-5-5-8-6-3-2z" fill="#567D8D"/>
<path transform="translate(1089,714)" d="m0 0 3 2-1 6v12l2 8 5 3 30 1 4 3-6 2v1l-6 1h-13l-15-1h-18v-2h16l-2-6-4-1-1-2-3 3-2-1 3-4 1-5v-16l-1-3z" fill="#E7F3F7"/>
<path transform="translate(1288,688)" d="m0 0h112l1 5h-112z" fill="#AF7370"/>
<path transform="translate(290,999)" d="m0 0 3 3 8 20 11 27 6 15 7 14 8 20 5 14 1 6-3-1-8-18-11-25-6-14-6-15-5-11-5-12-3-10v-8l-3-1z" fill="#EFEEEC"/>
<path transform="translate(1089,599)" d="m0 0h15l4 4v15l-3 3-4 1h-10l-6-5-1-10 2-5z" fill="#2F3133"/>
<path transform="translate(1213,342)" d="m0 0h11l15 6 10 9 7 11 6 14 2 8-1 2-4-1-4-9-6-10-9-10-3-3v-2l-5-2-10-8v-2l-7-1z" fill="#F9F8F6"/>
<path transform="translate(1398,1310)" d="m0 0h8l6 4 9 2v16l-5 2-7-1-10-2-2-3 1-2h2l-1-3-5-2 2-10z" fill="#FDFCFB"/>
<path transform="translate(1308,562)" d="m0 0h33v13l-11 1h-23v-9z" fill="#D2E2E8"/>
<path transform="translate(472,1139)" d="m0 0 4 1-17 4-4 4-3 5-6 5-8 3h-12l-14-5-8-7-1-3h-13l-36 6-10 1 4-2 26-5 29-4h38v1l-34 1 1 3 7 4v2l8 1 3 1h12l8-5 8-8z" fill="#4B4E50"/>
<path transform="translate(1322,807)" d="m0 0h5l13 10 3 3-1 3-20 7-5-1-4-8-2-3 1-5 6-1v-2z" fill="#CFA680"/>
<path transform="translate(1436,1015)" d="m0 0h1l1 138v27l-7-3 2-1 1-91 1-62z" fill="#B0D0DE"/>
<path transform="translate(290,990)" d="m0 0h2l6 16 15 37 9 21 9 19 8 22 2 12-1-2-3 1-1-6-7-20-9-20-10-23-18-45-2-6-2 2 1-7z" fill="#373C3F"/>
<path transform="translate(409,1143)" d="m0 0h44l-4 6-9 6-2 1h-12l-11-3v-2l-5-2-3-2v-3z" fill="#CCA07F"/>
<path transform="translate(292,1016)" d="m0 0 3 1 3 9 6 14 4 10 9 22 11 24 7 17 2 4 2 1 1-4-1-6 2 3 2 9 2 1h-2l-1 2h-2l-4 1-1-6h-2l-3-7-4-10-2-2-1-2-1-6-4-8-3-8-1-4h-4l2 8-3 1-3-8v-3h6l-6-16-2-2-1-4-3-5-2-8-4-8-2-3 2 9 1 6-2 2-3-8-1-1-1-10 3-1z" fill="#3B4549"/>
<path transform="translate(539,1011)" d="m0 0h7l-1 4-19 3-15 5-17 9-12 8-14 10-13 8h-3v-4l39-26 19-10 16-5z" fill="#384044"/>
<path transform="translate(1045,717)" d="m0 0h2l1 22 2 4 3 1h23l5-2 2-2 1 3 5 1 1 6h-49l-3-2v-2l4-2-1-3v-23h1v7h2v-6z" fill="#F7F9F9"/>
<path transform="translate(1449,1373)" d="m0 0h10l2 2 17 3 2 5-3 6-3 1-25 1z" fill="#5C5B5C"/>
<path transform="translate(550,1028)" d="m0 0 5 1 1 2-27 8-20 8-25 12-14 10-9 6-2-2 5-5 13-10 13-8 17-8 24-9 13-4z" fill="#474F54"/>
<path transform="translate(330,1111)" d="m0 0 2 4 1 3h2l4 10 3 6 6-4 22-7 7-1 2 1 14-1 1 3h9l-1 2-23 3-28 6-4 1h-7l-6-10-5-11z" fill="#F7F7F6"/>
<path transform="translate(753,1401)" d="m0 0h19l28 1 17 2 14 1 6 1v4l-14 1-17-2-24-1-3-2h-15l-10-1-2-1z" fill="#567D8D"/>
<path transform="translate(527,990)" d="m0 0h7l-1 3-25 6-14 6-15 9-11 8-10 9-9 8h-2l2-5 7-9h2v-2l13-10 18-11 12-6 14-4z" fill="#323739"/>
<path transform="translate(507,956)" d="m0 0h10l1 3-2 1-12 2-15 5-21 8-15 8-14 11-8 6-4 1 2-4 11-10 13-10 16-8 24-9z" fill="#383E41"/>
<path transform="translate(562,1041)" d="m0 0h3v3l-25 7-16 7-23 11-7 3-5 1v2l-11 6-7 6h-4l1-4 14-10 15-8 27-12 11-5 18-5z" fill="#40484B"/>
<path transform="translate(524,969)" d="m0 0h3l-1 4-26 8-18 8-13 7-11 8-10 9-8 9h-2l1-5 8-10 12-10 13-8 16-8 12-5z" fill="#363C40"/>
<path transform="translate(489,919)" d="m0 0h14v3l-7 1-1 1-24 4-14 5-16 9-17 12-23 23 2-6 6-7 4-4h2v-2h2l2-4 12-10 13-8 14-8 10-5z" fill="#323638"/>
<path transform="translate(839,809)" d="m0 0 5 1 9-1 2 1h11l5 1 13-2h5l-1 8-1 1h-20l-1 1-17-1v-2l-4 2-6-1-1-7z" fill="#B8D7ED"/>
<path transform="translate(648,1159)" d="m0 0 3 1 8 14 2 6-3 3-21-1-2-4 6-11 5-7z" fill="#2F3234"/>
<path transform="translate(1096,575)" d="m0 0h28l7 6 2 7v22l-3 6-6 5-3 1h-8l-1-3 10-2 5-5 1-12-1-16-4-5-5-1-23 1-4 4-2 6v5h-4v-9l4-6 3-3z" fill="#E2F0F5"/>
<path transform="translate(580,1083)" d="m0 0h7l1 4-1 1-40 5-25 6-23 9-2-1 11-6 2-2 18-7 21-5z" fill="#E5E3E0"/>
<path transform="translate(842,748)" d="m0 0h16l-1 4-4 2v17l1 1 2-2 3 4 3 2h-20l-1-2v-20z" fill="#CCE6F2"/>
<path transform="translate(1103,1284)" d="m0 0 3 1v4l34-4h4v3l-22 3-17 1 2 11v8l-1 3-2-1-1-18-17 4h-2l4 9v2l-5-1-3-8-10-1 2-3 24-6h4l2-6z" fill="#E3DAD2"/>
<path transform="translate(399,1109)" d="m0 0 14 1 1 3-18 3-20 3-21 6-12 4v-4l15-7 20-6z" fill="#F5F8F9"/>
<path transform="translate(917,1425)" d="m0 0h52l18 1 1 3-2 1-37 1h-31l-3-3v-2z" fill="#FCFBFA"/>
<path transform="translate(1338,1280)" d="m0 0 8 1 1 7h12l2 4-9 3-23 4h-6l-1-4 1-7 15 1-1-2v-6z" fill="#567987"/>
<path transform="translate(577,1080)" d="m0 0h12l2 7h-2l-1-3-17 1-27 4-22 6-9 4-8 2-17 8-2-1 9-6 17-8 18-6 16-4z" fill="#3B4347"/>
<path transform="translate(501,939)" d="m0 0h6l1 3-13 2-17 4-19 7-13 7-11 9-14 11-2-2 5-5 11-10 14-10 18-8 17-5z" fill="#373E42"/>
<path transform="translate(1241,711)" d="m0 0h10l8 2 4 5 1 5v10l-3 7-4 3-4 1h-13l-5-3-3-4-1-4v-10l2-7 4-4zm-2 4-4 3-1 10 2 9 5 4h12l6-4 2-5-1-13-4-4z" fill="#3F4448"/>
<path transform="translate(368 1e3)" d="m0 0h26l8 2v3h-36l-26 3-19 4h-5v-3l20-5 20-3z" fill="#3D474D"/>
<path transform="translate(374,1023)" d="m0 0h19l12 1 3 2v2h-39l-26 2-15 3-7 2v-4l13-4 20-3z" fill="#3B4448"/>
<path transform="translate(519,1124)" d="m0 0 2 1-5 9-6 8-2 3v3l-11 14-10 12-9 11-4 5h-2l1-6h2l2-4 9-11h2v-2l3-2 3-5 1-4 1-5 4-6 3-3 9-11 3-5z" fill="#60676E"/>
<path transform="translate(591,753)" d="m0 0h14l1 14h8l2 1h5l1 2-6 2-12-1-11 1-3-1v-17z" fill="#567A88"/>
<path transform="translate(532,1119)" d="m0 0 1 4-3 3h-2v3h-2l-2 5-7 10-3 2-3 5-6 7-3 5h-2v3l-5 5-8 9-4 4-3-1 3-5 13-16 9-11 7-9 9-11 4-8z" fill="#C3E2F2"/>
<path transform="translate(1313,711)" d="m0 0h9l8 2 3 4 1 3v16l-5 6-6 2h-13l-5-2-4-8v-13l4-8zm-4 4-4 4-1 2v13l3 5 3 2h13l6-3 2-3v-13l-3-6-2-1z" fill="#3F4245"/>
<path transform="translate(966,473)" d="m0 0 10 4 9 7 7 11 4 13v24h-1l-1-23-6-2-4-12-7-9-8-5-3-1-6-6 6 1z" fill="#F0D0B8"/>
<path transform="translate(1434,1321)" d="m0 0 5 1-2 1v96l-3 9h-1z" fill="#CDE3ED"/>
<path transform="translate(1024,1241)" d="m0 0 6 1 2 2 1 5v8l-3 7-3 2h-6l-3-6v-12l2-5z" fill="#586F78"/>
<path transform="translate(1619,782)" d="m0 0 8 6 7 8 6 9 1 5-3 7-7 5-9 1-6-3-1-2 11-1 5-4v-7l-8-16-4-6z" fill="#567D8D"/>
<path transform="translate(649,754)" d="m0 0h6l3 2v3l2 1-1 6h2v-11h6v9l3 2h12l3 1-1 4h-33l-5-1v-5h3l1-2z" fill="#567D8D"/>
<path transform="translate(340,987)" d="m0 0h30l16 2 11 3v3l-8-1-13-2-13-1h-17l-19 3-14 5h-3l1-4 13-5z" fill="#475257"/>
<path transform="translate(1317,660)" d="m0 0h14v20l-1 1h-13l-1-1v-13z" fill="#567D8D"/>
<path transform="translate(668,852)" d="m0 0 3 1v2l8 1 1 6-18 6-8 1-1-1-1-10 4-3 3-2z" fill="#EDF8FC"/>
<path transform="translate(1452,1171)" d="m0 0h25l-4 1 1 4v7h-26v-10z" fill="#5B5B5C"/>
<path transform="translate(581,1091)" d="m0 0h7l1 4-1 1-28 2-24 4-20 6-5 1-3-1v-2l6-1h4l-1-2 15-5 21-4z" fill="#DFDCD7"/>
<path transform="translate(507,1099)" d="m0 0 3 1v2l-11 5 7-2 3 2 4 1h-2v3l-5 1-2-3-4 3-2 2-7 1-3 3-9 3-1-5-3-1 5-1 1-5-5 1 4-4 6-3 4 2-2 3z" fill="#5B7884"/>
<path transform="translate(1024,1162)" d="m0 0 5 1 3 3v9l1 7-3 4-6 1-5-2-1-1 1-9v-3-7z" fill="#596A71"/>
<path transform="translate(1475,1159)" d="m0 0h10l3 2v7l-3 2h-34l4-1 1-4 10-4z" fill="#D23B4D"/>
<path transform="translate(801,1342)" d="m0 0h13l1 1v14l-2 4h-11l-3-2v-14z" fill="#F4F4F3"/>
<path transform="translate(424,882)" d="m0 0 12 2 29 1 1 4-2 2-21 1-16-2-10-3 3-2v-2z" fill="#E3D4C8"/>
<path transform="translate(768,748)" d="m0 0h28v2h-5l1 19-5 1v-17l2-1 1-3h-2l-1 3-7-1v-1h-5l-4 2 1 4 1 18h18l8 1v1l-6 1h-22l-3-1z" fill="#5B5F61"/>
<path transform="translate(552,1098)" d="m0 0h11l-3 2-26 5-19 6-20 8-25 13-6 2-17-3-2-3h9l7 2 8-1 19-10 16-7 7-1v-2l21-7z" fill="#35383A"/>
<path transform="translate(836,1291)" d="m0 0h7l5 4 1 2v8l-3 3-3 1h-8l-4-4-1-7 3-5z" fill="#FAFAF9"/>
<path transform="translate(510,669)" d="m0 0h6l5 8 2 4-1 5-5 2h-8l-5-2-1-4 4-10z" fill="#BCD2DA"/>
<path transform="translate(1386,712)" d="m0 0 7 1 5 4 3 2h-2l1 2v17l-3 5-4 1h-10l-4-2-2-5v-19zm-2 6-5 2 1 18 5 3 10-1 2-1v-17l-4-4z" fill="#54585B"/>
<path transform="translate(1437,1183)" d="m0 0 4 1v2l-16 8-10 9-1-4-6 4v3 2l2 1-6 8-2 5-5-2-1-5 3-3 5-8 11-10 10-7 4-2 7-1z" fill="#D23B4D"/>
<path transform="translate(1324,1253)" d="m0 0h27l-1 7 4-1v4h-30z" fill="#FAF9F8"/>
<path transform="translate(588,855)" d="m0 0 2 1 6 24v4l-4-1-6-14-1-6h-3l7 16 2 3v5h2v2h-4l-3-7-7-11 2-10 5-5z" fill="#F9F7F5"/>
<path transform="translate(402,1126)" d="m0 0h31v1l-31 3-33 5-30 6-4-3 1-5 3 1 1 2h7l27-6 18-3z" fill="#303133"/>
<path transform="translate(1073,843)" d="m0 0 4 1 2 5 3 2h2l1-5 3-2 4 1v13h-7l-4-1v-2l-5 3-3-1h-5l-1-1v-10l-7 1-1 10-2 1v-13l1-1h8l3 1 1 10h2l1-11z" fill="#B6CEDB"/>
<path transform="translate(1037,431)" d="m0 0 4 2 6 9 7 10 5 7 3 4-1 3-4-1-8-7-9-12-6-10 1-4z" fill="#FAF9F7"/>
<path transform="translate(1422,1313)" d="m0 0 2 1v77l-1 21-5 7h-3l1-3h2l2-5 1-47v-48z" fill="#567D8D"/>
<path transform="translate(838,1286)" d="m0 0 6 1 6 4 3 7-1 9-5 4-5 2h-7l-5-3-3-6v-8l3-5zm-2 5-5 4-1 7 3 5 2 2h8l5-3 1-1v-8l-4-5-2-1z" fill="#353839"/>
<path transform="translate(1059,1485)" d="m0 0 3 1 1 3-2 2-13 2-5 3-10 2-8 1-3-2 2-4 8-2 2-5 15 1z" fill="#567D8D"/>
<path transform="translate(434,1189)" d="m0 0h9l7 3 1 2v6l-4 4-10-1-8-5-1-5 3-3z" fill="#5B5B5C"/>
<path transform="translate(606,752)" d="m0 0h32v2l3 1h-5l1 10-2 2-2-4v-7h-3v9l-2 1v-10h-2v11h-3l-2-10-1 7-5 1 1-7h-3v8l-3-1v-11h-4z" fill="#7F9FAD"/>
<path transform="translate(1446,1197)" d="m0 0h14l4 2-1 9-3 6-3 1-9-5-2-3-2-9z" fill="#5B6063"/>
<path transform="translate(1377,577)" d="m0 0 4 1v14l-4 1-2-1-15-1v-13h13l1 11 1-11z" fill="#EEF9FC"/>
<path transform="translate(254,1145)" d="m0 0h10l11 4 12 2 24 6 5 1v2h9l16 3 12 2-2 2-29-4-30-7-7-2-13-2-16-4z" fill="#2E2C2C"/>
<path transform="translate(633,1308)" d="m0 0 5 2 4 6-1 8-6 9-10 9-7 4 2-5 9-12 4-11z" fill="#567D8D"/>
<path transform="translate(1013,1488)" d="m0 0 6 2-1 6-4 1h-20l-5 1-7-3 2-5 1-1h15v2l3-2h3v2z" fill="#567D8D"/>
<path transform="translate(789,1475)" d="m0 0h10l9 2 23 1 6 2-1 3h-36l-4-2-7-2z" fill="#567D8D"/>
<path transform="translate(860,1268)" d="m0 0h9l3 3v11l-5 3-4 1-6-3-2-4v-7z" fill="#FBFAF9"/>
<path transform="translate(1212,843)" d="m0 0h9l-1 13-1 2-6 1-10-2h-5l2-4 1-9h2l2 5 1-2 4-2z" fill="#D9ECF7"/>
<path transform="translate(1408,1239)" d="m0 0 1 4-1 3 6 1 5 5v8l-8 5-5-1-3-6v-9l4-7z" fill="#567A89"/>
<path transform="translate(507,1128)" d="m0 0 2 1-2 5-14 17-9 11-7 8-6 10h-3v12h-1v-13l3-5 2-5 3-2 4-7 5-4 13-17 7-9z" fill="#BDDAEA"/>
<path transform="translate(886,247)" d="m0 0 2 1-6 4-17 3-31 2h-9l2-2 10-1-1-1-7-1v-1l16-2 16-1h11v1l-10 1-2 2 9-2h2v2l14-4z" fill="#E1D5CB"/>
<path transform="translate(316,1062)" d="m0 0 3 3 13 30 6 17 1 6-3-1-8-18-11-25-3-6 1-5z" fill="#F5F4F2"/>
<path transform="translate(863,639)" d="m0 0h9l3 2 1 14-7 1-8-1-1-1v-11z" fill="#BFDEEC"/>
<path transform="translate(1089,599)" d="m0 0h15l4 4v15l-3 3-4 1h-10l-6-5-1-10 2-5zm4 3-4 2-1 9 3 5 2 1h8l4-4v-10l-3-3z" fill="#F0F2F1"/>
<path transform="translate(1434,758)" d="m0 0 5 4-1 6-1 100h-2z" fill="#C9E6F4"/>
<path transform="translate(1022,1201)" d="m0 0 9 1 3 5v9l-1 1-10 1-5-4-1-5 3-7z" fill="#F5F7F7"/>
<path transform="translate(1017,1090)" d="m0 0 12 2 4 3 1 8-4 4h-9l-3-3-1-2z" fill="#F7F7F6"/>
<path transform="translate(1364,536)" d="m0 0h11l1 1v10l-1 7h-12v-17z" fill="#567D8D"/>
<path transform="translate(1313,536)" d="m0 0h10l1 1v17l-1 1h-10l-1-1v-17z" fill="#567C8C"/>
<path transform="translate(646,1157)" d="m0 0h5l6 7 6 11v7l-6 3-11-1-2 1-9-1-2-2 1-9 7-12zm2 2-5 5-7 11-1 5 2 2 21 1 3-3-2-6-8-14z" fill="#E1DCD6"/>
<path transform="translate(1137,836)" d="m0 0 2 1v6l7 2 2 6v5h-2l-2-10h-5l-1 9-2 2h-8l-3-5v-13l6 4 5 1z" fill="#759AAE"/>
<path transform="translate(714,754)" d="m0 0 3 1v7l-2 7 9 1v1l-9 2-3 1h-9l-3-5 2-2 1-12h2l1 6 4-2 2-2 2 4z" fill="#668B9A"/>
<path transform="translate(1341,1172)" d="m0 0 4 2 9 11v3l-26-1v-3l6-4z" fill="#D04150"/>
<path transform="translate(374,1168)" d="m0 0h17l45 6 1 1 24 3 1 2-19-1-20-2v-2l-13-1-32-4z" fill="#333233"/>
<path transform="translate(1451,1301)" d="m0 0h7l3 4 1 4v7l-1 1h-11l-4-3 1-9z" fill="#587D8D"/>
<path transform="translate(1164,712)" d="m0 0 5 2 2 5v22h-6l-2-4 2-2-3-2v-14l1-3z" fill="#D5927D"/>
<path transform="translate(892,1395)" d="m0 0 7 1v8l-30-1-2-4 2-2z" fill="#567D8D"/>
<path transform="translate(516,1087)" d="m0 0 3 1-4 1v2l-4 1-1 2-6 2-9 4-16 8h3v4h-2v2l-6 3h-2v2l-5-1-2-3 1-4v2l5-2 12-9 15-9h2v2z" fill="#3A4144"/>
<path transform="translate(1251,843)" d="m0 0 5 1 2 5 3-2 1-3h4l-2 12-2 2h-13l-3-4v-5h2l1-4z" fill="#8BADC0"/>
<path transform="translate(1338,537)" d="m0 0h12l1 4-1 13h-12z" fill="#567D8D"/>
<path transform="translate(626,1025)" d="m0 0h10v2h43l30 1v1h-136l-1-2h42l10-1z" fill="#C9E7F5"/>
<path transform="translate(514,1126)" d="m0 0v3l-8 11h-2l-2 5-2 1-5 9-14 14-7 10-3 1 2-6 9-11 9-10 11-14 6-8-1-4z" fill="#5A6469"/>
<path transform="translate(688,845)" d="m0 0h1l2 9 1 1 2 9 4 5 5 4 1 3-1 1-15 1z" fill="#FBFBFA"/>
<path transform="translate(1145,709)" d="m0 0h10l6 2-1 6-7 1-1 1-13 1-4 1v-5h2l1-4z" fill="#9BBDE3"/>
<path transform="translate(1082,740)" d="m0 0 2 1v2l5 1 1 6h-35v-2l-2-1 4-2 19-1 5-2z" fill="#EFF9FC"/>
<path transform="translate(1029 1e3)" d="m0 0h2v21l-2 1-13-3 1-5 7-9 3-1z" fill="#525A5E"/>
<path transform="translate(359,971)" d="m0 0 5 1v1l-21 1-10 2-18 4-16 6-6 4h-3v-2h2v-2h2v-2h4v-2l8-4 15-4 12-2z" fill="#2F3031"/>
<path transform="translate(527,990)" d="m0 0h7l-1 3-25 6-14 6-6 3v-2l-3-1 4-3 12-6 14-4z" fill="#394145"/>
<path transform="translate(1301,1461)" d="m0 0h29l4 3v2h-21l-20 1-2-4z" fill="#567D8D"/>
<path transform="translate(313,1069)" d="m0 0 3 1 9 19 10 24 2 4 2 1 1-4-1-6 2 3 2 9 2 1h-2l-1 2h-2l-4 1-1-6h-2l-3-7-4-10-2-2-1-2-1-6-4-8-3-8z" fill="#393F42"/>
<path transform="translate(677,849)" d="m0 0h3v2l-12 2-30 1-2 3-19 5-12 3-5-1v-2l31-8h4v-4l6 1h20z" fill="#997F7F"/>
<path transform="translate(496,1047)" d="m0 0h9l-3 3-21 11-11 8-9 6-2-2 5-5 13-10 13-8z" fill="#384044"/>
<path transform="translate(1329,1187)" d="m0 0h23l1 9 6 2v2l-8 1v2l-5-1h-8l4-3-1-1v-10h-12z" fill="#D0D9DC"/>
<path transform="translate(504,886)" d="m0 0h19l-1 2h-4l1 12 2 5-3-1h-13l2-3 1-11h-2z" fill="#DEF1F9"/>
<path transform="translate(1131,585)" d="m0 0 2 3v22l-3 6-6 5-3 1h-8l-1-3 10-2 5-5 1-12 1-13z" fill="#F3F5F5"/>
<path transform="translate(1373,993)" d="m0 0h1l1 16v41l-1 22-2-4v-68z" fill="#9BBDE3"/>
<path transform="translate(1161,720)" d="m0 0h1v13l5 2-4 4 3 1 5 1-1 2-11 1-10-2-1-3 1-2h6v-2h2v-6l3-3 1-4-2-1z" fill="#F4CFB5"/>
<path transform="translate(731,574)" d="m0 0h51l-4 2-5 2-29 1-11-2v-2z" fill="#FDFCFB"/>
<path transform="translate(531,1125)" d="m0 0 1 3-4 5-7 10-10 14h-2l-2 5h-2l-2 4-5 6-3-2 3-4h2v-3l3-2 4-7 5-5 3-5h2l2-5 7-10h2l1-3z" fill="#303234"/>
<path transform="translate(1498,1253)" d="m0 0h7v14l-2 3-7-2-4-6 1-7z" fill="#5B5F62"/>
<path transform="translate(494,1171)" d="m0 0h3l-2 5-7 9-13 17-4 5-3-1v-8l1 3h2l2-5 8-9 9-12z" fill="#474B4D"/>
<path transform="translate(1100,1290)" d="m0 0h2l-2 6-16 3 4 9v2l-5-1-3-8-10-1 2-3z" fill="#E7D7CA"/>
<path transform="translate(842,748)" d="m0 0h9v2h-5l-1 5v17h2v-2l4-1 1 3h2l2-2 3 4 3 2h-20l-1-2v-20z" fill="#C9E7F5"/>
<path transform="translate(588,592)" d="m0 0h2v13h3l1-9 2-4 3 3 3 4 2-2h5l1 6-2 3h-2l2-7h-2l-1 4-4 3h-13l-1-1v-12z" fill="#C1DFED"/>
<path transform="translate(512,595)" d="m0 0 6 1 4 5 1 5-3 5-4 2-3-7-2-2v-3l-4 1-2 3-1 7-2-2 1-6 5-7z" fill="#9ABBCB"/>
<path transform="translate(378,1112)" d="m0 0 5 1-4 3-7 3-4 2-25 8v-4l15-7z" fill="#DEDEDB"/>
<path transform="translate(601,982)" d="m0 0h10l1 1h10l2 1-2 9h-4l-1-3h-2v-2l-7 1-5 3h-2z" fill="#F6EEE8"/>
<path transform="translate(1324,537)" d="m0 0 2 4 5-1 2 2 2 12v4h7v1h-15l-3-6z" fill="#FAF2E0"/>
<path transform="translate(1345,578)" d="m0 0h13l1 13h-14l-1-2z" fill="#FBFBFB"/>
<path transform="translate(1097,747)" d="m0 0h20l4 3 5 1v1l-6 1h-13l-15-1h-18v-2h23z" fill="#C9E7F5"/>
<path transform="translate(1315,562)" d="m0 0h13v13h-13z" fill="#FDFCFB"/>
<path transform="translate(1360,562)" d="m0 0h12l1 1v12h-13z" fill="#FCFAF9"/>
<path transform="translate(1315,577)" d="m0 0 13 1v13h-13z" fill="#FDFCFB"/>
<path transform="translate(562,1041)" d="m0 0h3v3l-25 7-16 7-6 1 1-4 19-8z" fill="#3A454A"/>
<path transform="translate(1124,712)" d="m0 0 3 1v3l5 1 3 2-2 15-2 3h-2l1 5-4 2-1-5 1-3v-17z" fill="#EBF5F8"/>
<path transform="translate(884,809)" d="m0 0h5l-1 8-1 1h-21v-7l8-1z" fill="#C2E1F2"/>
<path transform="translate(1491,1194)" d="m0 0 7 6 7 8 2 4 4 2 1 2-4-1 1 5-3-1v-2l-4-2-7-9-3-3v-2l-4-2v-3z" fill="#D23B4D"/>
<path transform="translate(396,1115)" d="m0 0h34l21 4 10 4 1 2-26-5-8-1-23-1v-1l-9-1z" fill="#56636A"/>
<path transform="translate(580,1064)" d="m0 0h1l1 7 3 1 7 10 2 13 3 6-1 3-4-4-2-1h-19v-2l17-2 2-3v4l1-1v-5l-13-1v-1l9-1 1-4 1 4v-4l-1-2-3-2-7-11z" fill="#575E62"/>
<path transform="translate(666,1185)" d="m0 0h4l-1 5-6 5-4 1h-22l-8-4-1-2 9 1h23l5-3z" fill="#F2F2F1"/>
<path transform="translate(495,772)" d="m0 0h6l4 2h29l-2 4h-19l-2-2-3 4-4-1v-2l-9 1z" fill="#C2DFEC"/>
<path transform="translate(410,1083)" d="m0 0h18l9 1 3 2v2h-37l-1-4z" fill="#585758"/>
<path transform="translate(1330,578)" d="m0 0h12v13h-12z" fill="#FCFBFB"/>
<path transform="translate(1023,1244)" d="m0 0h5l2 4v11l-1 3-6 1-2-1v-16z" fill="#F7F5F4"/>
<path transform="translate(368,1041)" d="m0 0 7 1 5 11 7 19v2l-3 1-4-11-4-9-3-7-1-1-13-1v-1l9-1h-15v-1z" fill="#4C5257"/>
<path transform="translate(401,871)" d="m0 0 19 9 4 1v2h-4l1 3-9-1-13-7-1-4h3z" fill="#F0CFB7"/>
<path transform="translate(554,1403)" d="m0 0 2 1-2 14-3 6-3 3h-7l-8-7-1-4 4 2 4 3h7l2-5z" fill="#567D8D"/>
<path transform="translate(1064,1292)" d="m0 0h3v7l2 1 1 7 1 1v8l2 1-7 1v9h-1l-1-16h-2l-4-9-1-4 3-1v2h2l3 10 1 1-1-10z" fill="#E2DAD2"/>
<path transform="translate(1345,562)" d="m0 0 12 1 1 9-1 3h-12z" fill="#FDFCFB"/>
<path transform="translate(333,988)" d="m0 0h29v1l-14 1-10 2-14 3-11 4h-3l1-4 13-5z" fill="#373F43"/>
<path transform="translate(743,755)" d="m0 0 11 1 2 4-1 5h-2v2l-6 1-5-1v-11z" fill="#67838F"/>
<path transform="translate(855,1279)" d="m0 0 5 5 4 1 10-4-1 5-7 4v6l-4 5-7 1 2-4 4-3-1-6-6-5z" fill="#434B4F"/>
<path transform="translate(531,1117)" d="m0 0 4 1-2 3h-2l-6 2-2 6-6 8-8 9-2-1 9-13 4-7-6 2h-7l10-5h5l4-3z" fill="#323436"/>
<path transform="translate(1180,844)" d="m0 0h1v12h4l-1-4v-8l4 2 2 3 3-5 2 1v10l1 2-5-1-2 1h-12v-7z" fill="#8BADC1"/>
<path transform="translate(540,1089)" d="m0 0 1 2h-2v2l2 1-22 6-20 8-2-1 11-6 2-2 18-7z" fill="#D0E6EF"/>
<path transform="translate(524,969)" d="m0 0h3l-1 4-26 8-9 3v-2l-3-1 12-5z" fill="#3C474C"/>
<path transform="translate(824,1346)" d="m0 0h6l2 2-1 11-2 2h-6l-2-2v-10z" fill="#F7F7F6"/>
<path transform="translate(665,1151)" d="m0 0h2l5 8 1 16-1 9-2 2-3-1v-24l-3-8z" fill="#F7F8F8"/>
<path transform="translate(387,1116)" d="m0 0h31v1l-13 1-1 1-25 3-12 2 1-4z" fill="#373D40"/>
<path transform="translate(1449,1420)" d="m0 0h24l1 5-2 1h-21l-2-1z" fill="#5C5B5C"/>
<path transform="translate(1323,1288)" d="m0 0 13 1 3 6v2l-10 2h-6l-1-4z" fill="#CA515A"/>
<path transform="translate(507,956)" d="m0 0h10l1 3-2 1-12 2-12 4h-6l-5 1-2-2 24-8z" fill="#56656C"/>
<path transform="translate(397,1072)" d="m0 0h32l4 4v2l-6-1-27-1-3-1z" fill="#44535A"/>
<path transform="translate(1331,562)" d="m0 0h10v13h-11v-12z" fill="#FDFCFB"/>
<path transform="translate(1455,1266)" d="m0 0h30l-1 5-1 1h-20l-7-2z" fill="#DEDCD8"/>
<path transform="translate(1102,843)" d="m0 0h6l1 2v13h-7l-4-3 2-10z" fill="#99BACE"/>
<path transform="translate(869,1346)" d="m0 0h5l1 1v12l-1 2h-7l-2-2v-11z" fill="#F3F4F4"/>
<path transform="translate(638,1148)" d="m0 0h23l4 2v3l-18-1-12 1-4 2-2 2h-3l2-4 3-3z" fill="#F5F5F5"/>
<path transform="translate(620,860)" d="m0 0 4 1v3h6l1 12h-5v-6h-1l-1 6-2-2v-5l-6-3-1-2-2 1h-8l4-2z" fill="#EBEEED"/>
<path transform="translate(403,1142)" d="m0 0h38v1l-34 1-1 4-3-2h-13l-36 6-10 1 4-2 26-5z" fill="#252323"/>
<path transform="translate(966,473)" d="m0 0 5 3v2l6 2 7 6-1 4 4 5 3 2-1 5v5l-2-3-4-10-6-8-8-5-3-1-6-6 6 1z" fill="#D0A782"/>
<path transform="translate(1020,1041)" d="m0 0h12v2l-11 1-1 4 9 2 4 3v10l-3 3-6 1-6-2-1-4 3 2h9l2-6v-3l-10-1-3 1v-11z" fill="#596970"/>
<path transform="translate(468,1180)" d="m0 0 3 1 1 2v7l8-7h3l-2 5-9 11-1 2h-2l-1-3z" fill="#C9E4F3"/>
<path transform="translate(537,1079)" d="m0 0 2 2-5 3-11 4-5 3h-2l-1 3-18 8-6 3-3-1 3-3 7-4 9-2 1-2 2 1 1-3h4v-2l19-9z" fill="#D2E0E5"/>
<path transform="translate(292,1022)" d="m0 0 2 1 4 10 2 3 2 7 2 6 4 6 1 6-4-2-6-12-5-13-3-8z" fill="#CAE7F5"/>
<path transform="translate(1279,842)" d="m0 0h5v13l-1 2h-10v-3h2v-9l1-2z" fill="#A0C0D3"/>
<path transform="translate(306,1095)" d="m0 0h2l4 8 6 16 6 13 5 14 3 3 1 3 10 1-4 2-8-1-3-5-7-18-7-15-8-19z" fill="#252323"/>
<path transform="translate(527,1089)" d="m0 0 3 1-2 3-14 5-9 3-17 8-2-1 9-6 17-8z" fill="#383F43"/>
<path transform="translate(502,1157)" d="m0 0h2l-1 5-3 1v3l-5 5-8 9-4 4-3-1 3-5 9-11 6-5z" fill="#C1DFF1"/>
<path transform="translate(532,1077)" d="m0 0 3 1-1 3-12 6-8 2-12 6h-2v-3l19-10z" fill="#373D40"/>
<path transform="translate(1073,340)" d="m0 0 7 1 1 1v8l-3 2h-8l-2-3 1-6z" fill="#FBFBFB"/>
<path transform="translate(404,1147)" d="m0 0 6 1 5 3v2l8 1 13 2v1l-10 1 1 1 11 1v1h-12l-14-5-8-7z" fill="#576870"/>
<path transform="translate(1207,487)" d="m0 0 3 3 1 3 7 3 1 7-7-1-11-4v-2l4-2 2-5z" fill="#F7F5F3"/>
<path transform="translate(723,751)" d="m0 0 6 2 2 6 2-2v7h-2l-1 3h-3l-1 2h-3z" fill="#57737F"/>
<path transform="translate(1438,1200)" d="m0 0h4l-1 4-8 4-14 13-7 13-1-3 3-7 4-6h2l2-4 5-6 4-4z" fill="#567C8B"/>
<path transform="translate(1212,843)" d="m0 0h9l-1 13-1 2-6 1-2-1 1-8 2-6z" fill="#DBEDF7"/>
<path transform="translate(501,939)" d="m0 0h6l1 3-13 2-17 4-8 1 1-2h2v-2l15-4z" fill="#374045"/>
<path transform="translate(1073,843)" d="m0 0 4 1 2 6-3-1v6l3 1-3 2-3-1h-5l-1-1v-10l-7 1-1 10-2 1v-13l1-1h8l3 1 1 10h2l1-11z" fill="#7196AF"/>
<path transform="translate(1020,923)" d="m0 0h10l3 4v6l-5 5-7 5v1l11 1v2h-15l1-4 5-5 6-5h2v-6l-9-1-4 4v-6z" fill="#4B5B61"/>
<path transform="translate(1327,1187)" d="m0 0 14 1v10l2 1-1 1h-10l-2-2 4-1 1-7h-3v7l-3-1-1-3 2-4h-3z" fill="#F3F8F9"/>
<path transform="translate(1022,342)" d="m0 0 5 2 1 1v7l-5 2-6-1-2-2 1-5 3-3z" fill="#FAFBFB"/>
<path transform="translate(649,754)" d="m0 0h6l3 2v3l2 1-3 8-6 1-2-1 1-5z" fill="#697074"/>
<path transform="translate(1353,540)" d="m0 0 4 2 3 6 1 6-5 1v-2h-6v-12z" fill="#F9F2E1"/>
<path transform="translate(1022,1201)" d="m0 0 9 1 3 5v9l-1 1-10 1-5-4-1-5 3-7zm1 2-4 6 2 5 1 1 7-1 3-1v-5l-4-5z" fill="#586D76"/>
<path transform="translate(365,1121)" d="m0 0 3 1-1 3-21 7-5 4-1-7 2-5 5-1-4 2 1 3z" fill="#3B4245"/>
<path transform="translate(486,1120)" d="m0 0h3v2l-19 10-6 2-17-3-2-3h9l7 2 8-1z" fill="#35383B"/>
<path transform="translate(1017,1090)" d="m0 0 12 2 4 3 1 8-4 4h-9l-3-3-1-2zm6 4-5 2 3 8 1 1h6l4-3-1-6-5-2z" fill="#596870"/>
<path transform="translate(703,751)" d="m0 0 14 1-1 3-2-1 1 7-2 1-2-3-2 5-2-3-2 1v-7h-2v12h-1l-1-11-1-4z" fill="#567987"/>
<path transform="translate(1381,715)" d="m0 0m-2 1 2 1-1 1v10l1 10 4 2h12l-4 4h-10l-4-2-2-5v-19z" fill="#515457"/>
<path transform="translate(1288,688)" d="m0 0 31 1v1l-5 1v2h-25z" fill="#AB7170"/>
<path transform="translate(508,600)" d="m0 0 3 1 4 7 1 5-2 1h-7l-2-1-1-8z" fill="#F7FAFA"/>
<path transform="translate(1048,341)" d="m0 0 6 1 1 1v8l-4 2-7-2-1-5 2-4z" fill="#FBFBFB"/>
<path transform="translate(760,1378)" d="m0 0h11l-1 2-16 2-14 1h-13v-2l3-1z" fill="#567D8D"/>
<path transform="translate(1373,902)" d="m0 0h1l1 19-1 54h-1l-1-20v-35z" fill="#9BBDE3"/>
<path transform="translate(470,1042)" d="m0 0h5l-1 4-19 12h-3v-4z" fill="#363C3F"/>
<path transform="translate(1405,1204)" d="m0 0 3 2v2l2 1-6 8-2 5-5-2-1-5 3-3 4-6z" fill="#D03F4F"/>
<path transform="translate(533,1136)" d="m0 0v3l-11 16-11 14-8 11-3 2 2-4 13-19 13-18z" fill="#262424"/>
<path transform="translate(822,753)" d="m0 0 6 1 1 2v14h-6l-1-1z" fill="#C9E7F5"/>
<path transform="translate(519,1124)" d="m0 0 2 1-5 9-6 8-5 5-3-3 2-4 5-5 6-9z" fill="#DDDFDE"/>
<path transform="translate(1324,1253)" d="m0 0h11l1 5-3 5h-9z" fill="#FBF2E0"/>
<path transform="translate(387,1041)" d="m0 0h27l6 3v3l-3 1-5-3-24-1z" fill="#4A555A"/>
<path transform="translate(510,669)" d="m0 0h6l5 8 2 4-1 5-1-3-3-5-1-6-4 3 1 1 1 9h-2l-1-7-7 1 2-7z" fill="#DDF0F8"/>
<path transform="translate(265,1132)" d="m0 0 2 1v9l-1 3 4 2-12-2-2-1 1-4 4-6z" fill="#CB9F7E"/>
<path transform="translate(658,883)" d="m0 0 6 1-4 3v1h-6l-7 2-14 1 2-2h9l-1-2h-9v-2z" fill="#82A6C4"/>
<path transform="translate(865,642)" d="m0 0h6l2 3v7l-1 1h-8l-2-4 1-6z" fill="#FCFBFB"/>
<path transform="translate(495,1161)" d="m0 0v3l-11 14-10 12h-2l1-6h2l2-4 9-11h2v-2z" fill="#52585C"/>
<path transform="translate(591,754)" d="m0 0h13v14l-7-1 4-1v-10h-5l-1 1v9l1 2h-5z" fill="#D0E9F5"/>
<path transform="translate(629,596)" d="m0 0h4v8l-2 2-6 1-4-1-1-9 5 1 1 1z" fill="#AECBD7"/>
<path transform="translate(310,1071)" d="m0 0h4l4 8 4 11 2 4-1 5-3-4-7-16-3-4z" fill="#88AAB9"/>
<path transform="translate(581,866)" d="m0 0 3 1 6 13 1 7h2v2h-4l-3-7-7-11 1-4z" fill="#FAF8F7"/>
<path transform="translate(1181,738)" d="m0 0h1v14h-38v-1l14-1h17l3-2-1-2 2-5z" fill="#DFDBD6"/>
<path transform="translate(430,883)" d="m0 0 6 1 28 1 1 3-5 1-3-1h-19l1 2-8-1z" fill="#EECDB5"/>
<path transform="translate(784,748)" d="m0 0h12v2h-5l1 19-5 1v-17l2-1 1-3h-2l-1 3-7-1 4-1z" fill="#5C5B5C"/>
<path transform="translate(693,710)" d="m0 0h2v8l-1 1-10 1v-2l-3-1 1-5 3-1h6z" fill="#9EBCCA"/>
<path transform="translate(801,1342)" d="m0 0h3l1 4v15l-5-1-1-1v-14z" fill="#98A5AA"/>
<path transform="translate(415,1125)" d="m0 0h20l14 2-3 3-37-1v-1l13-1-7-1z" fill="#596267"/>
<path transform="translate(1328,713)" d="m0 0 4 2 2 5v16l-5 6h-2l-1-3 4-4v-13l-2-5-2-2z" fill="#5A6267"/>
<path transform="translate(1143,710)" d="m0 0h7l1 5-2 3h-13l2-6z" fill="#567D8D"/>
<path transform="translate(1451,1301)" d="m0 0h7l3 4 1 4v7l-4 1v-2l-2-1h3v-3h-2l-1-7-4 1-3 4-2-1 1-5z" fill="#505152"/>
<path transform="translate(396,1056)" d="m0 0h27l1 3-19 1h-11v-3z" fill="#414B4F"/>
<path transform="translate(958,1488)" d="m0 0 20 1 1 6h-8l-12-3z" fill="#567D8D"/>
<path transform="translate(580,1083)" d="m0 0h7l1 4-1 1-14 1-8-1-1-3z" fill="#E1DED9"/>
<path transform="translate(364,972)" d="m0 0h11l15 3 4 2v1l-11-1-15-2-25-1v-1z" fill="#393C3D"/>
<path transform="translate(1042,835)" d="m0 0h13l-3 4h-3v19l-4-1 1-15v-3l-5-1z" fill="#80A4C2"/>
<path transform="translate(1082,740)" d="m0 0 2 1v2l5 1 1 6h-28v-1l16-1v-4z" fill="#FCFBFB"/>
<path transform="translate(1561,621)" d="m0 0h7l8 4 1 2h-24l4-4z" fill="#567D8D"/>
<path transform="translate(563,573)" d="m0 0 25 1v1h-11l-1 3-5 2h-8l-3-4v-2z" fill="#FDFCFB"/>
<path transform="translate(626,1025)" d="m0 0h10l1 3-16 1h-48l-1-2h42l10-1z" fill="#C7E5F4"/>
<path transform="translate(1452,1171)" d="m0 0 4 1 1 11h-9v-10z" fill="#567C8B"/>
<path transform="translate(646,1157)" d="m0 0h5l6 7 6 11v6l-1-3h-2l-6-11-4-7h-4l-1 3-2-1 1-4z" fill="#F1F0EF"/>
<path transform="translate(209,1136)" d="m0 0 9 1 14 3 4-1 3-3-2 8-3 1-24-6z" fill="#2E2E2E"/>
<path transform="translate(329,1090)" d="m0 0 2 2 7 20 1 6-3-1-8-18-1-6 2 1z" fill="#F1F5F6"/>
<path transform="translate(290,999)" d="m0 0 3 3 7 17-1 3 2 4-1 3-4-5-4-12v-8l-3-1z" fill="#E2E2E0"/>
<path transform="translate(466,899)" d="m0 0 4 4 3 9v5l-7 2z" fill="#FDFCFB"/>
<path transform="translate(1262,844)" d="m0 0h4l-2 12-2 2h-9l2-1 1-8 5-2z" fill="#D2E6F5"/>
<path transform="translate(472,1139)" d="m0 0 4 1-17 4-4 4-3 5-2 2h-3l1-4 3-6 3-3z" fill="#2D2C2C"/>
<path transform="translate(475,1108)" d="m0 0 1 2 6-2v4h-2v2l-6 3h-2v2l-5-1-2-3 1-4v2l5-2z" fill="#525B60"/>
<path transform="translate(324,1098)" d="m0 0 4 4 2 6v6l-2 5-3-4v-5h-2l-2-5z" fill="#748790"/>
<path transform="translate(533,1095)" d="m0 0 3 1v2l-17 5-1 3h-7l-6 1 1-3 20-7z" fill="#444C50"/>
<path transform="translate(1677,885)" d="m0 0 2 2-5 5-6 2-6-4-2-4h13z" fill="#567D8D"/>
<path transform="translate(590,891)" d="m0 0 3 1v3l7-1 1 1v-1l5-1h9l5 1v1l-11 2-3 2h-15z" fill="#958D9E"/>
<path transform="translate(254,1145)" d="m0 0h10l11 4 12 2-4 1-3-1v2l-8-1-16-4z" fill="#3C3939"/>
<path transform="translate(1234,844)" d="m0 0h5l2 3-1 8-2 2h-5v-12z" fill="#C8E1F2"/>
<path transform="translate(839,809)" d="m0 0 5 1 9-1-2 2v7h-2v-2l-4 2-6-1-1-7z" fill="#C9E7F5"/>
<path transform="translate(1351,1201)" d="m0 0h7l1 5-4 1h-29v-1l18-1-3-2 8-1 2 1z" fill="#EDF9FD"/>
<path transform="translate(532,1119)" d="m0 0 1 4-3 3h-2v3h-2l-2 5-5 6h-4l2-4 6-9 2-4z" fill="#C5E3F3"/>
<path transform="translate(330,1111)" d="m0 0 2 4 1 3h2l4 10 3 6h4l1 3h-7l-6-10-5-11z" fill="#EDEEED"/>
<path transform="translate(1259,736)" d="m0 0 3 1-2 4-7 3h-13l-5-3 3-3 3 2h12z" fill="#3A4042"/>
<path transform="translate(1018,1122)" d="m0 0h15v3l-7 14-3 7h-2l1-6 4-10 3-5-3-1-5 1z" fill="#474F53"/>
<path transform="translate(1128,844)" d="m0 0h2v2h6v9l-1 1h-6l-2-3z" fill="#E9F2F8"/>
<path transform="translate(458,1101)" d="m0 0h4l3 7 1 7 1 3h2v2l-9-2-3-1 2-4 3 1v2h2v-4h-2v-2h-2z" fill="#34383A"/>
<path transform="translate(913,1423)" d="m0 0 56 1-2 2h-50l-3 1z" fill="#E3DAD2"/>
<path transform="translate(1100,1290)" d="m0 0h2l-1 4-20 5h-6l-1-2 13-4z" fill="#D5927D"/>
<path transform="translate(374,1168)" d="m0 0h17l22 3-3 2-17-1-19-3z" fill="#383838"/>
<path transform="translate(411,1076)" d="m0 0h11l-1 3-2 1 4 2-13 2h-9l4-3h5l-1-4z" fill="#F9F8F6"/>
<path transform="translate(645,980)" d="m0 0 4 2v3l-2-1v2h-2v7l-5 1-2-2v-7z" fill="#FCFAF9"/>
<path transform="translate(1155,843)" d="m0 0h8l1 1v12l-7 2-4-2-1-2 8 1 1-10-5 3-2 4h-1v-7z" fill="#6B91A7"/>
<path transform="translate(312,1080)" d="m0 0 4 4 7 15-1 6-2-3-4-7-4-8-1-6z" fill="#3E4447"/>
<path transform="translate(555,1069)" d="m0 0 3 1-2 1 2 2-21 7h-3v-4z" fill="#3C4449"/>
<path transform="translate(292,1016)" d="m0 0 3 1 2 9-2 2-2-5-1 3 3 8-1 6-2-4-3-5-1-10 3-1z" fill="#3E494F"/>
<path transform="translate(1355,580)" d="m0 0 3 1 1 10h-14l-1-2 2-3 7-1z" fill="#EEF9FC"/>
<path transform="translate(1360,578)" d="m0 0h13v6h-1v-5h-4l1 7-8 2-1 3z" fill="#FCFBFB"/>
<path transform="translate(1307,578)" d="m0 0h6l1 14h-7z" fill="#FAF8F5"/>
<path transform="translate(1307,559)" d="m0 0h28l-3 2-2 1-16 1-2 2v-3h-4v5h-1z" fill="#DDD6CF"/>
<path transform="translate(532,1098)" d="m0 0 4 2-4 1v2l-18 6-6-1v-2l6-1h4l-1-2z" fill="#CADFE8"/>
<path transform="translate(377,646)" d="m0 0 5 4 7 11 8 16v7l-2-2-4-10-8-16-6-8z" fill="#CBA07E"/>
<path transform="translate(991,496)" d="m0 0 3 4 2 8v24h-1l-1-23-5-2-1-8h2z" fill="#E4D7CD"/>
<path transform="translate(1400,1250)" d="m0 0h1l2 9 4 8 1 1v5l-2 3-3-3-3-7-1-10z" fill="#D23B4D"/>
<path transform="translate(1028,971)" d="m0 0h4l2 12-4 3h-9l-2-2 1-4 2 2 5 1 4-1 1-4-6-2v-4z" fill="#535B5F"/>
<path transform="translate(1152,845)" d="m0 0h1l1 6 3-5 4-1v10l-1 1h-5l-3-1-3 1-1-3h4z" fill="#D9EBF7"/>
<path transform="translate(1023,1175)" d="m0 0h7l1 7-3 2h-6l-2-2 1-5z" fill="#F5F5F4"/>
<path transform="translate(428,946)" d="m0 0m-1 1m-1 1m-1 1m-1 1m-1 1 1 3-23 23 2-6 6-7 4-4h2v-2h2l2-4z" fill="#323639"/>
<path transform="translate(1160,710)" d="m0 0 6 1 2 2-3 1-1-1v5l-3 4-1 5-3 2-1-6 1-4-4-2 6-1z" fill="#DCDDDA"/>
<path transform="translate(1092,576)" d="m0 0h10v2l-9 2-3 5-1 9h-4v-9l4-6z" fill="#F3F6F6"/>
<path transform="translate(1378,561)" d="m0 0h3v14l-2 1-4-1v-13z" fill="#FBFBFA"/>
<path transform="translate(385,1074)" d="m0 0h3l4 12-1 3-13 1 1-4h9l-3-8z" fill="#3A4044"/>
<path transform="translate(336,1008)" d="m0 0h5l-4 2 3 2-19 4h-5v-3z" fill="#435157"/>
<path transform="translate(527,990)" d="m0 0h7l-1 3-14 3-12-1 3-2z" fill="#404C52"/>
<path transform="translate(1113,583)" d="m0 0h8l2 2 1 8h-6l-5-6z" fill="#F3F5F5"/>
<path transform="translate(1026,883)" d="m0 0h2v12l-1 13h-2v-20l-7 4 1-4z" fill="#4A5357"/>
<path transform="translate(1133,734)" d="m0 0 1 3v12l-7-2h-5l-1-2h2l2-4 4 1v-5z" fill="#CAE7F4"/>
<path transform="translate(1330,1278)" d="m0 0h8l7 1 1 2h-8v8l-5-1-3-6z" fill="#EFF5F8"/>
<path transform="translate(1463,1200)" d="m0 0 8 2 13 7v1h-6l-9-4-5 3-1-7z" fill="#E8F0F2"/>
<path transform="translate(512,629)" d="m0 0h14l12 1v3l-30-1-1-2z" fill="#C4E2F0"/>
<path transform="translate(396,1115)" d="m0 0h34l6 2v1h-31v-1l-9-1z" fill="#535759"/>
<path transform="translate(422,1076)" d="m0 0 8 1 1 4 1-2 3 1-3 3h-15l-2-3 6-2z" fill="#E8E2DD"/>
<path transform="translate(608,753)" d="m0 0 4 1h-2l1 11 1 3h-6l-1-1v-13z" fill="#56585A"/>
<path transform="translate(645,596)" d="m0 0 4 1 1 6-1 2h-9l-2-1-1-5 1-2h3l1 4h2z" fill="#83A6B5"/>
<path transform="translate(410,1083)" d="m0 0h18v1h-8v2l-7 2h-10l-1-4z" fill="#576972"/>
<path transform="translate(515,774)" d="m0 0h19l-2 4h-19z" fill="#C0DEEC"/>
<path transform="translate(1396,717)" d="m0 0 5 1-2 1 1 2v17l-3 5-3-1 2-1-1-2h2z" fill="#5A6E78"/>
<path transform="translate(1371,560)" d="m0 0h5l-1 15h6l-1 3h-5v11l-2 1v-12h-13v-1l14-1-1-12z" fill="#CCCFCE"/>
<path transform="translate(626,1291)" d="m0 0 5 2 5 4 6 9-1 2-2-2-2 4-4-2 1-7-7-8z" fill="#CDE2EE"/>
<path transform="translate(1449,1195)" d="m0 0 12 1 8 4-4 1-5-3h-16v2l-12 3 4-5h2v-2z" fill="#AA6B6E"/>
<path transform="translate(496,918)" d="m0 0h22l2 1-1 2-3-1v2l-11 1h-9v-1l6-1v-1l-6-1z" fill="#596B73"/>
<path transform="translate(936,1487)" d="m0 0h13v4l-14 2-3-2 1-3z" fill="#567D8D"/>
<path transform="translate(550,1028)" d="m0 0 5 1 1 2-14 4h-6l-1-2h2v-2z" fill="#363D40"/>
<path transform="translate(638,890)" d="m0 0h18l-2 2 3 1v5h-7l-1-4 1-1-13-1z" fill="#9E6F72"/>
<path transform="translate(634,808)" d="m0 0 4 1 1 4-2 5-6 1-2-1 1-7 3-1z" fill="#90AAB5"/>
<path transform="translate(595,592)" d="m0 0 3 1 4 6 2-2h5l1 6-2 3h-2l2-7h-2l-1 4-2 2h-4l-1-7-1-3h-2z" fill="#92B2C0"/>
<path transform="translate(1342,562)" d="m0 0 2 2 1 11h27v1h-42v-1h11z" fill="#D9DEDE"/>
<path transform="translate(424,882)" d="m0 0 6 1 1 6h3v2l-14-3-3-2 3-1v-2z" fill="#E3D7CD"/>
<path transform="translate(513,700)" d="m0 0 3 1 1 2 2-2h13v4h-13l-5 1-2-5z" fill="#B9D8E5"/>
<path transform="translate(1356,1288)" d="m0 0 4 1 1 3-9 3h-7l3-6z" fill="#CB545B"/>
<path transform="translate(1426,1213)" d="m0 0 2 1-7 7-7 14-3 11h-3l2-9 8-16z" fill="#D7DFE1"/>
<path transform="translate(356,1119)" d="m0 0 2 2 5-1 4 1-24 8v-4z" fill="#E5E9E8"/>
<path transform="translate(307,1044)" d="m0 0 2 1v2h2l6 15-2 3h-2l-5-13z" fill="#EEEBE7"/>
<path transform="translate(1027,1008)" d="m0 0 2 1v7l-1 4-9 1 2-6z" fill="#F4F5F4"/>
<path transform="translate(1344,577)" d="m0 0h16l1 6-1 4h-2v-9h-13v11l-3 1v-12z" fill="#D7DFE1"/>
<path transform="translate(520,1037)" d="m0 0 2 1-1 2-10 5-4 3h-7l-2-2z" fill="#51595D"/>
<path transform="translate(659,809)" d="m0 0 2 2-1 4 2 1 1 1 1-8 3 1-1 7 2-1 2-4v8h-10l-2-1-1-8z" fill="#94B0BC"/>
<path transform="translate(607,809)" d="m0 0 3 2-2 9-4 1 1-3-5 1v-7l1-2h4l1 6 1-5z" fill="#89A0AA"/>
<path transform="translate(1313,711)" d="m0 0h9l6 1-1 3h-21l1-3z" fill="#3A464B"/>
<path transform="translate(406,363)" d="m0 0h2l5 28 1 7v8h-1l-4-20z" fill="#E1D9D2"/>
<path transform="translate(444,1176)" d="m0 0h11l10 1-1 2v8h-1l-1-5-20-2-5-1v-1l24 1-17-2z" fill="#696C73"/>
<path transform="translate(1024,1162)" d="m0 0 5 1 2 2-1 3-2-2-5-1v8h6l-1 2-7 1-2-4v-7z" fill="#515F66"/>
<path transform="translate(489,1158)" d="m0 0v3l-8 8-7 10-3 1 2-6 9-11 3-3z" fill="#495156"/>
<path transform="translate(1308,562)" d="m0 0h4l1 3v10h-6v-8z" fill="#FDFBFA"/>
<path transform="translate(332,1094)" d="m0 0h3l4 11 2 12-1-2-3 1-1-6-4-12z" fill="#3A4144"/>
<path transform="translate(479,1075)" d="m0 0h5l-1 3-10 7-2 2h-4l1-4z" fill="#363E42"/>
<path transform="translate(591,1091)" d="m0 0h2l3 9 1 4-5-4-2-1h-19v-2l17-2 2-3v4z" fill="#58585A"/>
<path transform="translate(569,1089)" d="m0 0h20l2 1 1 6h-2v-4h-25z" fill="#35383A"/>
<path transform="translate(562,1041)" d="m0 0h3v3l-19 5h-2v-2l-3-1z" fill="#414E54"/>
<path transform="translate(843,749)" d="m0 0h8v1h-5l-1 5v17l7 2v1h-9z" fill="#567D8D"/>
<path transform="translate(1340,583)" d="m0 0h1v8h-11v-6z" fill="#EDF9FC"/>
<path transform="translate(1437,1153)" d="m0 0h1v27l-7-3 2-1 1-12h2z" fill="#D6E1E4"/>
<path transform="translate(1319,655)" d="m0 0h11l2 2-2 3h-13v-4z" fill="#F1F8FA"/>
<path transform="translate(989,507)" d="m0 0 5 2 1 2v8h-2l-1 6h-1l-2-10z" fill="#D0A782"/>
<path transform="translate(507,1174)" d="m0 0v3l-6 9-8 11-2 1 2-7 6-9 5-4z" fill="#535253"/>
<path transform="translate(447,1110)" d="m0 0h7l7 2 1-2v2h2v4h-2v-2l-4 1-3 1-11-3z" fill="#434F55"/>
<path transform="translate(334,1027)" d="m0 0 4 1 5 1v1l-15 3-7 2v-4z" fill="#404F56"/>
<path transform="translate(486,965)" d="m0 0h3v2l-16 6h-2v-2l-4-1 10-4h7z" fill="#3C4549"/>
<path transform="translate(1418,1260)" d="m0 0 1 2-3 7-1 1h-5l-1 3-1-8 6-3z" fill="#E1DAD3"/>
<path transform="translate(464,1182)" d="m0 0h2l2 10 1 14h-2l-2-3-1-8z" fill="#353638"/>
<path transform="translate(552,1098)" d="m0 0h11l-3 2-21 4-7-1 4-2z" fill="#363A3C"/>
<path transform="translate(766,983)" d="m0 0h8l-2 9-5 1-1-2z" fill="#D0A580"/>
<path transform="translate(403,1142)" d="m0 0h38v1l-34 1-1 4-3-2-6-1 4-2z" fill="#292727"/>
<path transform="translate(370,1123)" d="m0 0 5 1-3 2-17 5-9 2v-2z" fill="#E1DCD6"/>
<path transform="translate(537,1079)" d="m0 0 2 2-5 3-11 4-5 3h-2l-1 2-5 1 1-3h4v-2l19-9z" fill="#CAE6F3"/>
<path transform="translate(952,895)" d="m0 0 2 1 1 13h-2l-1 33h-1v-36z" fill="#EDF9FD"/>
<path transform="translate(661,755)" d="m0 0h6v9l1 3-4 1-3-1z" fill="#5B5E61"/>
<path transform="translate(1410,1215)" d="m0 0 2 2-3 10-1 6-2 2-1-7-1-3z" fill="#D03D4E"/>
<path transform="translate(514,1126)" d="m0 0v3l-8 11h-2v2l-3 1 1-4 6-8-1-4z" fill="#555F64"/>
<path transform="translate(1435,1197)" d="m0 0 3 1-11 7-9 5-2-1 8-7 8-4z" fill="#D23B4D"/>
<path transform="translate(616,984)" d="m0 0h8l-2 9h-4l-2-3z" fill="#D0A680"/>
<path transform="translate(805,980)" d="m0 0 4 1-4 10-4-2-3-7z" fill="#C56163"/>
<path transform="translate(723,751)" d="m0 0 6 2 2 6-1 6h-1v-8h-2l-1-3-1 14-2-1z" fill="#82A6B5"/>
<path transform="translate(1170,719)" d="m0 0h1v22h-6l-2-4 2-2-1-2h5z" fill="#D0A781"/>
<path transform="translate(1305,713)" d="m0 0 4 2-4 6-1 11-3 2v-13z" fill="#5A5F62"/>
<path transform="translate(1422,1313)" d="m0 0 2 1v20l-3 1v-19z" fill="#567B8B"/>
<path transform="translate(1064,1292)" d="m0 0h3v7l2 1 1 7v8l-1-2h-2l-3-16z" fill="#CCB5AF"/>
<path transform="translate(1103,1286)" d="m0 0h1l1 8 1 1 1 16-1 3-2-1-1-18-2-1 1-4-2-1z" fill="#D3CBC2"/>
<path transform="translate(699,971)" d="m0 0h9v3l-3 7h-3z" fill="#C0585F"/>
<path transform="translate(606,711)" d="m0 0h10v7h-3l1-4h-2v5l-6-2-1-5z" fill="#7E98A4"/>
<path transform="translate(1407,1247)" d="m0 0h7l5 5v6h-2l-2-4-5-1z" fill="#575C60"/>
<path transform="translate(1021,1242)" d="m0 0 6 1-4 2-1 1-1 15-2 2-1-3v-12l2-5z" fill="#567A89"/>
<path transform="translate(1468,1171)" d="m0 0h9l-4 1 1 4v7h-6z" fill="#5C5B5C"/>
<path transform="translate(339,1108)" d="m0 0 2 3 2 9 2 1h-2l-1 2h-2l-4 1-1-6h-2l1-2 2-1 3 3 1-4z" fill="#5E6E76"/>
<path transform="translate(494,1171)" d="m0 0h3l-2 5-5 7-6 2 2-5z" fill="#424547"/>
<path transform="translate(507,1128)" d="m0 0 2 1-2 5-7 9-2-1 1-6 5-6z" fill="#DAE0E0"/>
<path transform="translate(518,1129)" d="m0 0h4l-2 5-11 12-2-1 9-13z" fill="#3E4649"/>
<path transform="translate(577,1080)" d="m0 0h12l2 7h-2l-1-3h-14v-2h-6v-1z" fill="#3D4246"/>
<path transform="translate(398,1076)" d="m0 0h13l-2 1 1 4 2 1h-11z" fill="#EBE4DF"/>
<path transform="translate(287,995)" d="m0 0 4 1 1 4-2 1v2l2 1 2 13-3-2-2-3v-3h2l-2-4-2 2-1-5z" fill="#596B73"/>
<path transform="translate(380,989)" d="m0 0 10 1 7 2v3l-8-1-13-2z" fill="#46575F"/>
<path transform="translate(596,710)" d="m0 0 6 2v6l-6 1-2-1 1-7z" fill="#829DA8"/>
<path transform="translate(1358,587)" d="m0 0h2v4h15v1h-47l2-2h12 3 13z" fill="#E3DAD2"/>
<path transform="translate(932,1432)" d="m0 0 27 1v1l-28 1-6 2-3-4z" fill="#567D8D"/>
<path transform="translate(645,1183)" d="m0 0 12 1 5-1-3 3-5 1h-13l-6-2 3-1h7z" fill="#5A656B"/>
<path transform="translate(311,1060)" d="m0 0 2 3 2 6-1 2h-4l2 8-3 1-3-8v-3h6l-2-7z" fill="#4A5155"/>
<path transform="translate(652,979)" d="m0 0h5l-1 6v5l-4-1-4-8z" fill="#BF7972"/>
<path transform="translate(669,975)" d="m0 0h5l-2 10-4-1-3-5v-3z" fill="#D0A380"/>
<path transform="translate(1377,577)" d="m0 0 4 1-1 10-5 1v-11z" fill="#FDFCFB"/>
<path transform="translate(886,247)" d="m0 0 2 1-6 4-17 3h-4l2-4 8-1v2l14-4z" fill="#E0D6CC"/>
<path transform="translate(750,980)" d="m0 0 9 1v2h-2l-2 6-5 1z" fill="#CD7E72"/>
<path transform="translate(1069,843)" d="m0 0 5 1-1 11h-4l-1-11z" fill="#CDE3F3"/>
<path transform="translate(1058,844)" d="m0 0h8l2 1v8h-1v-7l-7 1-1 10-2 1v-13z" fill="#BDDCF0"/>
<path transform="translate(466,606)" d="m0 0 3 3v10l1 3-3 7h-1z" fill="#FDFCFB"/>
<path transform="translate(661,1178)" d="m0 0 2 4-6 3-11-1-2 1h-6l-2-1 1-3 21 1z" fill="#CEE4EE"/>
<path transform="translate(517,912)" d="m0 0h6l5 2 1 4-1 1-8-1-3-5z" fill="#FDFCFB"/>
<path transform="translate(492,912)" d="m0 0 6 1 1 2h-2l-1 4h-9l1-4z" fill="#F8F9FA"/>
<path transform="translate(1324,1252)" d="m0 0h33l-4 2 1 5-4 1 1-7h-27z" fill="#B3A195"/>
<path transform="translate(504,1108)" d="m0 0 3 1-1 3-16 7h-6l4-2 3-3 7-1 4-4z" fill="#C6E2EE"/>
<path transform="translate(1107,608)" d="m0 0h1v10l-3 3-4 1h-8v-2l9-1 3-5z" fill="#F4F5F4"/>
<path transform="translate(1073,1325)" d="m0 0h11l-4 2h-11v9l7 1v1l-9-1-1-11z" fill="#AE7271"/>
<path transform="translate(468,1180)" d="m0 0 3 1 1 2v8l2 3-5 1-1-1z" fill="#FAFBFB"/>
<path transform="translate(280,1151)" d="m0 0 15 2 8 3 1 2-12-2-12-3z" fill="#333131"/>
<path transform="translate(610,867)" d="m0 0h5l2 12h-4l-3-8z" fill="#766365"/>
<path transform="translate(650,709)" d="m0 0 4 1 2 3h2l1 3-3 3h-5l-1-3z" fill="#B3C6CE"/>
<path transform="translate(508,678)" d="m0 0h4l1 6-2 2h-5l-1-1v-6z" fill="#F2F8FA"/>
<path transform="translate(1334,1226)" d="m0 0h25v1h-22v8l-4-1z" fill="#AD978F"/>
<path transform="translate(486,1183)" d="m0 0 3 1-9 11h-3l2-6 5-5z" fill="#595C5E"/>
<path transform="translate(477,1173)" d="m0 0 4 2-2 4-4 5h-2l-1 2-3-6 5-2z" fill="#E3DCD6"/>
<path transform="translate(380,1056)" d="m0 0 2 2 5 14v2l-3 1-4-11-1-4z" fill="#414A4F"/>
<path transform="translate(695,750)" d="m0 0h1v22l-4-4v-5l-2-1 4-1v-8z" fill="#FDFCFB"/>
<path transform="translate(708,566)" d="m0 0 1 2h5v2l-7 1v2h-7l-1-3z" fill="#E3D9CF"/>
<path transform="translate(500,1145)" d="m0 0 4 1-1 5-5 6-3-4z" fill="#7499A9"/>
<path transform="translate(383,1076)" d="m0 0 3 3 2 3v4h-5l-4-5 2-4z" fill="#C28E7B"/>
<path transform="translate(1028,1016)" d="m0 0 3 2v6l-2 1-13-3 1-3 3 1h8z" fill="#58686F"/>
<path transform="translate(979,951)" d="m0 0h2l-3 9v7h-3l-3-8-3-4 1-2 5 5z" fill="#577581"/>
<path transform="translate(590,856)" d="m0 0h2l5 21 1 7-2-1-6-22z" fill="#63686F"/>
<path transform="translate(601,982)" d="m0 0h7v3l-5 7h-2z" fill="#CB6163"/>
<path transform="translate(717,973)" d="m0 0 9 1-5 9-3-3z" fill="#D0A17F"/>
<path transform="translate(1200,844)" d="m0 0 2 4-2 6-2 3 3 1h-8v-3h1v-2h3v-5h3z" fill="#DBEDF7"/>
<path transform="translate(1087,612)" d="m0 0 2 1 2 4 2 1h10l-1 2h-9v2l-5-2-3-3v-4z" fill="#EDEBE8"/>
<path transform="translate(1252,452)" d="m0 0h4l-1 4-10 7-3 1 1-4 5-3z" fill="#F4F5F3"/>
<path transform="translate(512,1472)" d="m0 0h5l3 3 1 6-6-2-3-4z" fill="#567D8D"/>
<path transform="translate(824,1346)" d="m0 0h6l2 2-1 11-2 2h-5l4-4v-9z" fill="#4A585E"/>
<path transform="translate(1329,1278)" d="m0 0 2 2 1 5 2 4-11-1 3-4z" fill="#FBF0DD"/>
<path transform="translate(844,1274)" d="m0 0 5 1 2 1v2l-8 1-1 4-3 1 1-7z" fill="#3C4448"/>
<path transform="translate(1023,1165)" d="m0 0h5l1 1v6l-1 1h-5l-1-6z" fill="#F7F7F6"/>
<path transform="translate(404,1147)" d="m0 0 6 1 5 3v2l4 2h-8l-7-6z" fill="#4B4D50"/>
<path transform="translate(324,1137)" d="m0 0h2l4 10 3 5 10 1-4 2-8-1-3-5-4-10z" fill="#333131"/>
<path transform="translate(486,1103)" d="m0 0 4 2-5 6h-4l-1-2-4 1 4-4z" fill="#587581"/>
<path transform="translate(1032,1054)" d="m0 0h1v9l-3 3-6 1-6-2-1-4 3 2h9z" fill="#566369"/>
<path transform="translate(504,886)" d="m0 0h19l-1 2h-4l-1 5-2-1v-4h-5l1 4-1 8h-1l-1-11-4-2z" fill="#7398A8"/>
<path transform="translate(849,769)" d="m0 0 3 1v2h2l2-2 3 4 3 2h-11v-1l-5-1 1-4z" fill="#C8E5F3"/>
<path transform="translate(591,754)" d="m0 0h6l-2 1v11l1 2h-5z" fill="#D8E3E6"/>
<path transform="translate(899,1344)" d="m0 0h4l1 17h-3z" fill="#434F55"/>
<path transform="translate(1404,1248)" d="m0 0h1l2 12 1 2 4-2 1 4-6 1-4-7v-9z" fill="#5A5B5D"/>
<path transform="translate(1444,1199)" d="m0 0 2 3-1 4v-3l-5 4-6 3-4 3-2-1 8-7 5-1 1-4z" fill="#CFE3EB"/>
<path transform="translate(445,1128)" d="m0 0h9l12 3v1l-6 1-13-2z" fill="#494C4E"/>
<path transform="translate(563,1085)" d="m0 0 2 2 8 1-4 2h-10l-5-2 1-2z" fill="#E3F0F6"/>
<path transform="translate(517,1056)" d="m0 0h2l1 4-8 4-6-2 4-3z" fill="#49545A"/>
<path transform="translate(520,743)" d="m0 0h2l-1 3-5 5-6 5-1 2h-2l5-10z" fill="#58717C"/>
<path transform="translate(870,747)" d="m0 0h16v6l-1-3-26-1v-1z" fill="#C9E7F5"/>
<path transform="translate(528,1051)" d="m0 0 3 1-1 3-8 4-4-1 1-3z" fill="#3A4245"/>
<path transform="translate(301,1046)" d="m0 0 3 1 1 3 4 8v3l-4-2-5-11z" fill="#D3E3E9"/>
<path transform="translate(505,844)" d="m0 0h3v4l5-2 1 1h6l2-1v4h-16z" fill="#B3D3E1"/>
<path transform="translate(1321,725)" d="m0 0h3l-2 6-6 1-3-3v-3h7z" fill="#525B5F"/>
<path transform="translate(1233,723)" d="m0 0h1l2 12 1 4h-4l-1-2v-13z" fill="#35373A"/>
<path transform="translate(811,1342)" d="m0 0 4 1v14l-2 4h-7v-1l5-1 1-2v-12z" fill="#4B595F"/>
<path transform="translate(1031,1254)" d="m0 0h1v7l-5 5h-6l-1-5 9 1 1-4z" fill="#5A656A"/>
<path transform="translate(493,1067)" d="m0 0 3 1-3 3-5 2 1 2-5 2-4-3z" fill="#4C5357"/>
<path transform="translate(626,756)" d="m0 0h2v13l1 2h-6l1-4 1-1v-8z" fill="#576E79"/>
<path transform="translate(1332,726)" d="m0 0 2 2v8l-5 6h-2l-1-3 4-4z" fill="#545759"/>
<path transform="translate(1414,1198)" d="m0 0 1 2-3 7-4 1-2-4 6-5z" fill="#AE6B6D"/>
<path transform="translate(985,1192)" d="m0 0 1 2-4 8-3 3-5-2-3-3 1-2 3 2h5z" fill="#596B73"/>
<path transform="translate(482,1177)" d="m0 0v3l-8 10h-2l1-6h2l2-4z" fill="#44464A"/>
<path transform="translate(328,1116)" d="m0 0h2l5 11-1 5-2-1-3-7z" fill="#444749"/>
<path transform="translate(538,1086)" d="m0 0 4 1 2 2-12 3-4-1 2-3z" fill="#3E484D"/>
<path transform="translate(546,1084)" d="m0 0h10l-1 3-6 1h-8v-3z" fill="#383D40"/>
<path transform="translate(440,987)" d="m0 0 2 1-6 6 1 2-8 5h-2l2-4z" fill="#3F474B"/>
<path transform="translate(778,982)" d="m0 0h16v2l-6 1-1 7-2-1v-6l-7-1z" fill="#92B4C3"/>
<path transform="translate(868,642)" d="m0 0 4 1 1 2v7l-1 1h-8l-1-2 8-2v-3h-2z" fill="#EDF9FC"/>
<path transform="translate(1096,599)" d="m0 0h8l4 4v5l-2 6h-1l-1-11h-2l-1-2-5-1z" fill="#EBE9E5"/>
<path transform="translate(869,1346)" d="m0 0h5l1 1v12l-1 2h-6l4-4v-8z" fill="#464D51"/>
<path transform="translate(617,1297)" d="m0 0 5 2 4 5 1 6-5-4-5-8z" fill="#567D8D"/>
<path transform="translate(863,1293)" d="m0 0h2v5l-3 3-7 1 2-4z" fill="#353A3D"/>
<path transform="translate(470,1170)" d="m0 0 1 4-3 5-1 10h-1v-7h-2l-1-4h2l2-5z" fill="#3F494E"/>
<path transform="translate(479,1157)" d="m0 0 2 2-4 5-2 4-6 3 2-4 6-8z" fill="#2C2B2C"/>
<path transform="translate(514,1101)" d="m0 0h5l-1 5h-7l-6 1 1-3z" fill="#4A5A62"/>
<path transform="translate(296,1078)" d="m0 0 3 1 2 4v4h-6l-1-4z" fill="#C1947A"/>
<path transform="translate(302,1035)" d="m0 0 3 2h2l3 7-1 3-1-1-1 4-5-12z" fill="#F6F6F6"/>
<path transform="translate(626,864)" d="m0 0h4l1 12h-5v-9z" fill="#555D61"/>
<path transform="translate(849,755)" d="m0 0h1v11l-1 4h-2v2l4 1h-5v-12h3z" fill="#F2FAFC"/>
<path transform="translate(1115,746)" d="m0 0h13l4 3-12 2-3-2z" fill="#ECF8FC"/>
<path transform="translate(683,711)" d="m0 0 6 1v5l-5 2-3-2 1-5z" fill="#6A8894"/>
<path transform="translate(588,592)" d="m0 0h2v13l4-1v2h-6l-1-1v-12z" fill="#557786"/>
<path transform="translate(888,1346)" d="m0 0 4 1 2 2v11l-3 1-1-11z" fill="#444B4F"/>
<path transform="translate(1119,1320)" d="m0 0 3 1h-2v6h-6v-4l-7-1v-1z" fill="#C4928B"/>
<path transform="translate(1032,1220)" d="m0 0 1 2-4 4-6 1-5-3v-3l4 2 7-1z" fill="#566268"/>
<path transform="translate(492,1131)" d="m0 0h7l-1 2-10 3-8 3-4-1 9-4z" fill="#464545"/>
<path transform="translate(532,1119)" d="m0 0 1 4-3 3h-2v3l-5-1 2-5z" fill="#86A8C4"/>
<path transform="translate(290,990)" d="m0 0h2l4 11v2l-3 1-3-8-2 2 1-7z" fill="#363B3E"/>
<path transform="translate(490,961)" d="m0 0 5 1-1 3-5 1-8 1-2-2z" fill="#545D61"/>
<path transform="translate(1076,744)" d="m0 0 3 1v4h-8l1-2-15-1v-1z" fill="#DDF0F8"/>
<path transform="translate(1162,703)" d="m0 0h20v4h-3v-2h-15z" fill="#E3DAD2"/>
<path transform="translate(327,1101)" d="m0 0 3 1 5 11-1 4-3-2z" fill="#373C40"/>
<path transform="translate(323,1087)" d="m0 0 2 2 4 10v2h-3l-2-2-1-2-1-6v-3z" fill="#424F55"/>
<path transform="translate(516,1087)" d="m0 0 3 1-4 1v2l-4 1-1 2-6 2-6 1v-4h2v2z" fill="#57727E"/>
<path transform="translate(316,1084)" d="m0 0 4 1 4 9-1 5-3-4-4-9z" fill="#C6E4F2"/>
<path transform="translate(494,699)" d="m0 0h3v5l6-4h2v6l-11-1z" fill="#A3C4D3"/>
<path transform="translate(591,593)" d="m0 0 4 1-2 11h-3v-9z" fill="#F8FAFB"/>
<path transform="translate(393,1170)" d="m0 0h15l5 1-3 2-17-1z" fill="#373536"/>
<path transform="translate(516,1139)" d="m0 0 3 1-2 4-3 2-3 5-2-1 1-4h2l-1-3z" fill="#A2C3E3"/>
<path transform="translate(336,1133)" d="m0 0 3 1 1 2 6 1-2 3-5 1-4-3z" fill="#323436"/>
<path transform="translate(504,1112)" d="m0 0h3v2l-16 7-3-1 4-3z" fill="#394044"/>
<path transform="translate(1230,837)" d="m0 0h2l-3 15 1 5-4-1 1-10z" fill="#638699"/>
<path transform="translate(489,626)" d="m0 0h2l1 2 10 1-1 3h-9l-3-1z" fill="#A5C6D4"/>
<path transform="translate(537,1459)" d="m0 0h4l2 6v7l-2-1-3-9h-2z" fill="#B4C1C5"/>
<path transform="translate(1071,1320)" d="m0 0h14l-4 4h-8v-2h-2z" fill="#99BBE0"/>
<path transform="translate(1341,1172)" d="m0 0 4 2v3l-4-2-5 4 2-4zm-6 7m-1 1m-1 1m-1 1m-2 1h2v2l2 2h-6v-3z" fill="#C4716D"/>
<path transform="translate(344,1123)" d="m0 0 3 1-4 1 1 4h7l-3 2-5 3-2 2-1-7 2-5z" fill="#4B585E"/>
<path transform="translate(330,1111)" d="m0 0 2 4 1 3h2l1 6-2 3-5-11z" fill="#D5E0E3"/>
<path transform="translate(458,1113)" d="m0 0 4 1v2h2l1-3 2 5h2v2l-9-2-3-1z" fill="#32373A"/>
<path transform="translate(555,1069)" d="m0 0 3 1-2 1 2 2-10 3-3-1 1-3z" fill="#404E54"/>
<path transform="translate(651,886)" d="m0 0 9 1v1h-6l-7 2-14 1 2-2h9v-2h7z" fill="#9BBDE3"/>
<path transform="translate(611,859)" d="m0 0 4 1-6 4-8 1-1-3z" fill="#B77973"/>
<path transform="translate(871,639)" d="m0 0 4 2 1 14-2-1-2-2v-7l-2-4z" fill="#C9E7F5"/>
<path transform="translate(803,1343)" d="m0 0 2 3v15l-5-1v-3h3z" fill="#5B5F62"/>
<path transform="translate(263,1149)" d="m0 0h12l12 2-4 1-3-1v2l-8-1-9-2z" fill="#484F53"/>
<path transform="translate(331,1100)" d="m0 0 3 1 4 11 1 6-3-1-2-5-2-8 1-2h-2z" fill="#CEE5F0"/>
<path transform="translate(501,1099)" d="m0 0 3 1-1 2-15 7-2-1 9-6z" fill="#313638"/>
<path transform="translate(1017,1090)" d="m0 0 4 2-1 1 3 2-4 2 3 8-3 1-2-4z" fill="#577683"/>
<path transform="translate(294 1e3)" d="m0 0h3l4 12h-2l-1 2-4-11z" fill="#3E4346"/>
<path transform="translate(582,863)" d="m0 0h3l6 16 1 4-4-4-6-14z" fill="#626E75"/>
<path transform="translate(1249,847)" d="m0 0h2l1 2 2-2v7l-5 2-1-1z" fill="#D1E7F5"/>
<path transform="translate(1181,844)" d="m0 0h3l1 12h-4z" fill="#E9F5FB"/>
<path transform="translate(673,758)" d="m0 0h7l1 6-4-1-4 1z" fill="#A0C0CE"/>
<path transform="translate(1391,740)" d="m0 0h6l-4 4h-10l-1-2z" fill="#3F4446"/>
<path transform="translate(1443,1203)" d="m0 0h2l2 5-10 2-7 4 1-3 6-4 5-1z" fill="#F4FAFB"/>
<path transform="translate(1436,1194)" d="m0 0 13 1v1l-11 1-11 4-4 2v-2z" fill="#D38E7C"/>
<path transform="translate(1075,848)" d="m0 0 4 2 1 2h4v5h-3v-2h-5z" fill="#C5E0F1"/>
<path transform="translate(1047,841)" d="m0 0 1 2-1 5h2v10l-4-1 1-15z" fill="#95B8DC"/>
<path transform="translate(1232,807)" d="m0 0 5 1-1 6-4 2-1-8z" fill="#A86D6C"/>
<path transform="translate(669,755)" d="m0 0h12l2 7-3-2v-2l-9-1-2 1z" fill="#5B5E61"/>
<path transform="translate(847,1348)" d="m0 0h3v12l-3 1z" fill="#444546"/>
<path transform="translate(854,1345)" d="m0 0 4 1 1 4v11h-2l-1-10-3-5z" fill="#434B4F"/>
<path transform="translate(1484,1259)" d="m0 0h1v7l-2 1h-23v-1l20-1 3-2z" fill="#567D8D"/>
<path transform="translate(1019,1211)" d="m0 0 3 3h10l1 3-10 1-4-3z" fill="#59666C"/>
<path transform="translate(1433,1160)" d="m0 0h1v12l-1 4h-5v-3l3-1-1-3h2z" fill="#EDF6F8"/>
<path transform="translate(647,1151)" d="m0 0h7v3h-2l-1 4h-7l1-2 3-1z" fill="#4E5A60"/>
<path transform="translate(209,1136)" d="m0 0 9 1 6 1-3 1v2l-11-2z" fill="#403F40"/>
<path transform="translate(544,1088)" d="m0 0h6l-3 5-6 1-2-1v-2h2v-2z" fill="#DCE1E1"/>
<path transform="translate(1022,1049)" d="m0 0 7 1 4 4-2 3v-3l-10-1-2 1 2-4z" fill="#567785"/>
<path transform="translate(800,978)" d="m0 0 11 1-1 2-10 1v3l-4-1 2-5z" fill="#F8F2ED"/>
<path transform="translate(1028,971)" d="m0 0h4l1 10-1-3-6-2v-4z" fill="#56656C"/>
<path transform="translate(501,939)" d="m0 0h6l1 3-3 1h-8l-4-3z" fill="#46575E"/>
<path transform="translate(884,809)" d="m0 0 4 1-1 2h-2l-1 5h-4l1-6z" fill="#9BBDE3"/>
<path transform="translate(1246,724)" d="m0 0 5 1 2 4h-9v-4z" fill="#5A6368"/>
<path transform="translate(640,710)" d="m0 0 2 1-1 7 2-1v-5h3l-1 6-2 2-5-1 1-8z" fill="#52717E"/>
<path transform="translate(883,1346)" d="m0 0 3 1-2 14h-2v-13z" fill="#434F54"/>
<path transform="translate(1020,1174)" d="m0 0 2 3-1 5 6 3-1 2-7-2-1-1 1-9z" fill="#58707A"/>
<path transform="translate(1465,1171)" d="m0 0 7 1-3 2v8h-4l1-7-2-3z" fill="#252323"/>
<path transform="translate(512,1094)" d="m0 0 3 1-2 4-10 2v-3z" fill="#373D40"/>
<path transform="translate(432,1084)" d="m0 0 7 1 1 3h-19v-1h12z" fill="#58707A"/>
<path transform="translate(1341,1058)" d="m0 0v3l-10 9-3-3 10-7z" fill="#596A72"/>
<path transform="translate(300,1051)" d="m0 0 3 1 3 7v6l-1-2-2-1-2-3-2-7z" fill="#404548"/>
<path transform="translate(546,977)" d="m0 0h2l7 12 3 6h-3l-9-17z" fill="#C2E1F2"/>
<path transform="translate(602,900)" d="m0 0h6v6l-6 1z" fill="#D6907D"/>
<path transform="translate(591,883)" d="m0 0h6l1 4h5v1l-10 1v-2h-2z" fill="#DEC4B2"/>
<path transform="translate(1221,845)" d="m0 0h7l-1 7-2 1-4-3z" fill="#E1F0F9"/>
<path transform="translate(506,774)" d="m0 0h9l-2 3h-3l-2 3-4-1 1-4z" fill="#C5E4F2"/>
<path transform="translate(510,669)" d="m0 0h6l5 8 2 4-1 5-1-3-3-5-2-6-7-1z" fill="#57737F"/>
<path transform="translate(620,645)" d="m0 0 3 1 1 3 3-1v-2h2l1 5h-9l-2-2z" fill="#C9E7F5"/>
<path transform="translate(839,1346)" d="m0 0 4 1h-2l-1 13h-3l1-12z" fill="#42484C"/>
<path transform="translate(626,1291)" d="m0 0 5 2 5 4 4 7-4-2-5-5z" fill="#AABBC0"/>
<path transform="translate(495,1154)" d="m0 0 1 3-2 4-4 4-2-1 2-5z" fill="#C3DCE6"/>
<path transform="translate(250,1120)" d="m0 0 1 4-5 5-4 2 2-5 5-5z" fill="#2C2A2A"/>
<path transform="translate(327,1106)" d="m0 0h2l1 2v6l-2 5-3-4v-2h2l-1-6z" fill="#748C96"/>
<path transform="translate(470,946)" d="m0 0 3 1-2 1 1 2-10 3v-4z" fill="#3C484E"/>
<path transform="translate(522,919)" d="m0 0h9v3l-8 1-1 2-2-5z" fill="#BDDCF0"/>
<path transform="translate(1252,843)" d="m0 0 4 1 1 5-2 8-6 1v-3l4-1 2-9-3-1z" fill="#567D8D"/>
<path transform="translate(1197,813)" d="m0 0h4v9h-4z" fill="#A06D6D"/>
<path transform="translate(839,809)" d="m0 0 7 2-1 5h-5z" fill="#9BBDE3"/>
<path transform="translate(1237,738)" d="m0 0 4 2 10 1v1h-7v2l-7-1-2-3z" fill="#555251"/>
<path transform="translate(1387,726)" d="m0 0 4 2v6h-5v-7z" fill="#567D8D"/>
<path transform="translate(1152,718)" d="m0 0h7l-2 7v10l-2-1-1-14z" fill="#F5FAFB"/>
<path transform="translate(1082,1301)" d="m0 0 4 2 2 7-5-1z" fill="#826F75"/>
<path transform="translate(1451,1301)" d="m0 0h7l-4 3-5 5-2-1 1-5z" fill="#5A646A"/>
<path transform="translate(519,1102)" d="m0 0h2v2l2 1-9 4-6-1v-2l6-1h4l-1-2z" fill="#C7E3F0"/>
<path transform="translate(1021,1083)" d="m0 0h10l2 1v2l-7-1-6 3-2 2 1-5z" fill="#56646A"/>
<path transform="translate(520,1037)" d="m0 0 2 1-1 2-10 5h-3l2-4z" fill="#5A6368"/>
<path transform="translate(291,1026)" d="m0 0 2 2 2 6-1 6-2-4-3-5 1-4z" fill="#444D51"/>
<path transform="translate(1155,843)" d="m0 0h8l1 2-6 1-4 6h-1v-7z" fill="#8AACC2"/>
<path transform="translate(512,595)" d="m0 0 6 1 4 5 1 5-2 2-4-9z" fill="#567D8D"/>
<path transform="translate(1380,579)" d="m0 0h1v13l-4 1-4-3 6-2z" fill="#E6F3F7"/>
<path transform="translate(421,439)" d="m0 0 2 3 6 18h-2l-4-8-2-6z" fill="#E3DAD2"/>
<path transform="translate(773,1480)" d="m0 0h7l-1 3-2 1h-7v-3z" fill="#567D8D"/>
<path transform="translate(1083,1294)" d="m0 0h3l-1 4-10 1-1-2z" fill="#D39A7E"/>
<path transform="translate(1023,963)" d="m0 0 9 1 2 5-2 2v-4l-7-1-4 2 1-4z" fill="#4F5F66"/>
<path transform="translate(1272,845)" d="m0 0 4 1-1 8-4 2v-9z" fill="#D2E9F6"/>
<path transform="translate(1234,844)" d="m0 0 2 2-2 10 4-2 2-6 1 4-3 5h-5v-12z" fill="#5C8294"/>
<path transform="translate(1218,844)" d="m0 0h3l-1 12-3 1z" fill="#567C8B"/>
<path transform="translate(1299,815)" d="m0 0h6l-2 7-4 1z" fill="#A06D6B"/>
<path transform="translate(588,807)" d="m0 0h3v6l-3 5h-1v-10z" fill="#58717B"/>
<path transform="translate(913,1423)" d="m0 0h10l11 1v1l-17 1-3 1z" fill="#DBDDDB"/>
<path transform="translate(1095,1299)" d="m0 0 4 1v8l-3 1-2-9z" fill="#567887"/>
<path transform="translate(1451,1199)" d="m0 0 5 2v6l-2 2-3-4z" fill="#567D8D"/>
<path transform="translate(493,1191)" d="m0 0v3l-6 9-3 1 2-5z" fill="#2B2929"/>
<path transform="translate(500,1141)" d="m0 0 3 1-1 3-2 1-3 5-3 1v-3z" fill="#596A72"/>
<path transform="translate(991,1095)" d="m0 0 4 1 1 8h-8l4-2-2-1z" fill="#5B5F61"/>
<path transform="translate(562,1090)" d="m0 0h5l3 3-14 1-1-3z" fill="#444D51"/>
<path transform="translate(498,1047)" d="m0 0h7l-3 3-8 4-4-1 2-2 6-2z" fill="#333739"/>
<path transform="translate(428,971)" d="m0 0 2 1-3 3 1 2-8 5v-3l5-5z" fill="#464F54"/>
<path transform="translate(507,901)" d="m0 0h12l2 4-3-1h-13z" fill="#567988"/>
<path transform="translate(655,893)" d="m0 0h2v5h-7l-1-4z" fill="#D18B7B"/>
<path transform="translate(742,758)" d="m0 0 3 1v7l3 1-5 1-1-1z" fill="#92AEB9"/>
<path transform="translate(817,567)" d="m0 0 9 4v1l-5 1h-7l-1-3 6 1v-2h-2z" fill="#E3DED8"/>
<path transform="translate(1329,1326)" d="m0 0 6 1 1 4-5 1-3-2z" fill="#D0A781"/>
<path transform="translate(375,1087)" d="m0 0 4 1-1 2-12 2 1-3z" fill="#323131"/>
<path transform="translate(312,1080)" d="m0 0 4 4 1 4-3 3-2-4-1-6z" fill="#44494C"/>
<path transform="translate(348,1044)" d="m0 0h5v1l5 1v1l-15 1 1-3z" fill="#3B4549"/>
<path transform="translate(1090,853)" d="m0 0 2 1v4h-7l-1-4z" fill="#88AABE"/>
<path transform="translate(816,758)" d="m0 0h3l1 10h-4z" fill="#C9E7F5"/>
<path transform="translate(1505,750)" d="m0 0h2l7 11 2 3-4-1-6-10z" fill="#577783"/>
<path transform="translate(1399,728)" d="m0 0h1v10l-3 5-3-1 2-1-1-2 2-1 1-9z" fill="#5B6063"/>
<path transform="translate(822,1347)" d="m0 0h2v9l-1 3h-2v-10z" fill="#48555B"/>
<path transform="translate(1335,1196)" d="m0 0 5 1 3 2-1 1h-10l-2-2z" fill="#EEF9FC"/>
<path transform="translate(1486,1158)" d="m0 0 4 2 1 7-3 3-3-1 2-1v-7z" fill="#AE6F6F"/>
<path transform="translate(1018,1122)" d="m0 0h15v3l-7-1-5 1z" fill="#566268"/>
<path transform="translate(504,1105)" d="m0 0 5 2 4 1h-2v3l-5 1-2-4-2-2z" fill="#708A94"/>
<path transform="translate(334,1027)" d="m0 0 4 1 5 1v1l-14 1 1-3z" fill="#414D53"/>
<path transform="translate(1229,847)" d="m0 0h1l1 7 1-5h1v8l4 1h-6l-3-3z" fill="#BAD6EE"/>
<path transform="translate(1201,844)" d="m0 0h2l1 3-2 9-4 1 2-4z" fill="#57727D"/>
<path transform="translate(1263,844)" d="m0 0h3l-2 12-4 1z" fill="#567D8D"/>
<path transform="translate(664,809)" d="m0 0 3 1-1 7 2-1 2-4v5l-2 2h-5z" fill="#58707B"/>
<path transform="translate(1209,810)" d="m0 0h4l-1 9h-3l-1-8z" fill="#BC8376"/>
<path transform="translate(507,675)" d="m0 0 7 2 1 8h-2l-1-7-7 1z" fill="#83A2B0"/>
<path transform="translate(1317,587)" d="m0 0 7 1 3 3h-12l1-3z" fill="#EDF9FC"/>
<path transform="translate(1342,479)" d="m0 0 4 1-5 4-9 9v-3l8-8z" fill="#B46468"/>
<path transform="translate(1403,1236)" d="m0 0 2 2-2 9-1 2h-2l2-11z" fill="#D23B4D"/>
<path transform="translate(502,1157)" d="m0 0h2l-1 5-3 1v3l-3-1 2-5z" fill="#96B8D9"/>
<path transform="translate(474,1116)" d="m0 0h4l2 6h-5l-1-3h-2v-2z" fill="#C9E6F3"/>
<path transform="translate(1032,1101)" d="m0 0 1 3-3 3h-9l-1-2 10-2z" fill="#5B6064"/>
<path transform="translate(495,1066)" d="m0 0 6 1v2l-7 3-7 2 1-2 7-3z" fill="#333537"/>
<path transform="translate(292,1022)" d="m0 0 2 1 2 5v5l-3-1-2-9z" fill="#B5D5E3"/>
<path transform="translate(504,995)" d="m0 0 5 1-3 2-8 2-2 1-2-2z" fill="#51595D"/>
<path transform="translate(989,978)" d="m0 0 4 2v4l4-1-2 5-4-1v-5z" fill="#596C74"/>
<path transform="translate(688,888)" d="m0 0h4v7h-5z" fill="#D69B8A"/>
<path transform="translate(634,848)" d="m0 0 2 1-1 5-10 2v-2l5-1v-2l3-1z" fill="#F8F3EE"/>
<path transform="translate(1588,765)" d="m0 0 3 1 1 10-4-1z" fill="#E3DBD3"/>
<path transform="translate(714,754)" d="m0 0 3 1v7l-2 5h-1z" fill="#C9E7F5"/>
<path transform="translate(1379,728)" d="m0 0h1l1 10 4 3-5 2-2-5z" fill="#58646A"/>
<path transform="translate(1303,732)" d="m0 0 2 2 3 5 2 2-5 1-3-5z" fill="#4B4648"/>
<path transform="translate(1045,711)" d="m0 0 2 1-3 13h-2v-7z" fill="#E3DAD2"/>
<path transform="translate(922,267)" d="m0 0 2 1-7 12-3 3 1-4 6-11z" fill="#E1DAD4"/>
<path transform="translate(918,151)" d="m0 0h2l-2 4-6 10-2-3z" fill="#DCC9B7"/>
<path transform="translate(1450,1353)" d="m0 0h6l1 5-6-1z" fill="#504F50"/>
<path transform="translate(1020,1168)" d="m0 0h2l1 5h6l-1 2-7 1z" fill="#4A4E51"/>
<path transform="translate(628,1155)" d="m0 0h1l-1 10-2-2-2 1 1-7z" fill="#F1F0ED"/>
<path transform="translate(539,1116)" d="m0 0v3l-6 6-2-1 4-7z" fill="#2A2828"/>
<path transform="translate(528,1103)" d="m0 0h6v2l-12 3v-3z" fill="#353A3D"/>
<path transform="translate(363,1090)" d="m0 0 6 1 9-1-4 2-8 2h-4z" fill="#4A5960"/>
<path transform="translate(496,1047)" d="m0 0 3 1-1 2-7 3-3 1-2-2z" fill="#494F52"/>
<path transform="translate(339,1026)" d="m0 0h7v1l6 1v1h-15z" fill="#3B464B"/>
<path transform="translate(493,960)" d="m0 0h12l-1 2-7 2h-5z" fill="#383F42"/>
<path transform="translate(509,957)" d="m0 0h9v2l-2 1h-10z" fill="#343E43"/>
<path transform="translate(1027,935)" d="m0 0h2l-1 3-7 5v2l-4-1 5-5z" fill="#4D5356"/>
<path transform="translate(488,941)" d="m0 0h10l-3 3-8 1z" fill="#363D40"/>
<path transform="translate(489,919)" d="m0 0h14v3h-8v-2h-6z" fill="#424649"/>
<path transform="translate(673,847)" d="m0 0 4 1v2l-5 1h-9l2-2 7-1z" fill="#F5F5F4"/>
<path transform="translate(1163,816)" d="m0 0h6l-1 7-3 1z" fill="#A57172"/>
<path transform="translate(1267,813)" d="m0 0 3 1v6l-2 3h-2z" fill="#715E5F"/>
<path transform="translate(649,806)" d="m0 0 3 2 1 10h-3l-2-11z" fill="#506872"/>
<path transform="translate(863,639)" d="m0 0h8l-1 3-8 1v-3z" fill="#ADCDDB"/>
<path transform="translate(512,629)" d="m0 0 8 1-1 2h-11l-1-2z" fill="#99BBC9"/>
<path transform="translate(595,592)" d="m0 0 3 1 3 5 1 6-3 1-1-7-1-3h-2z" fill="#566F7A"/>
<path transform="translate(967,474)" d="m0 0 5 1 8 5v2l-5-2-4-2v-2l-4-1z" fill="#EBCEB8"/>
<path transform="translate(1049,456)" d="m0 0 4 2v2l4 1 3 3v2l-4-2-7-6z" fill="#F0E5D5"/>
<path transform="translate(1263,429)" d="m0 0h2l1 5-1 4-3-1-1-5z" fill="#F5F7F7"/>
<path transform="translate(865,1348)" d="m0 0h3l-1 12-2-1z" fill="#464F53"/>
<path transform="translate(1407,1247)" d="m0 0h7l1 5-5 1z" fill="#4C4C4D"/>
<path transform="translate(1416,1220)" d="m0 0 2 1-2 6-4 7-1-3 3-7z" fill="#586F79"/>
<path transform="translate(1022,1201)" d="m0 0 2 1-4 7-1 5-2-3 3-9z" fill="#577582"/>
<path transform="translate(658,1170)" d="m0 0 3 1 2 4v6l-1-3h-2l-3-7z" fill="#F5F5F4"/>
<path transform="translate(522,1086)" d="m0 0v3l-6 2-1 2-5 1 1-3h4v-2z" fill="#CAE7F5"/>
<path transform="translate(534,1032)" d="m0 0 3 1-1 1 2 2-9 1 2-4z" fill="#4E585D"/>
<path transform="translate(550,1028)" d="m0 0 4 1-10 3-2-1v2l-5-1 4-2z" fill="#596971"/>
<path transform="translate(1058,844)" d="m0 0h2l-1 13-2 1v-13z" fill="#567D8D"/>
<path transform="translate(684,810)" d="m0 0h2v9h-4l1-8z" fill="#577480"/>
<path transform="translate(1244,808)" d="m0 0 4 1-4 9h-1v-9z" fill="#A5716D"/>
<path transform="translate(1528,770)" d="m0 0h3l-1 4-2 2h-4l1-4z" fill="#567A89"/>
<path transform="translate(636,765)" d="m0 0 2 4 6-1 1 2-10 1-1-2z" fill="#567D8D"/>
<path transform="translate(647,756)" d="m0 0h2l2 8-4 3-1-5z" fill="#CCE5F0"/>
<path transform="translate(508,600)" d="m0 0 3 1 3 5-1 2-5-3h-3l2-4z" fill="#E5F4FA"/>
<path transform="translate(630,596)" d="m0 0h3v8l-2 2-4-1 3-2z" fill="#567B8B"/>
<path transform="translate(1092,576)" d="m0 0h10v2l-9 2h-3z" fill="#F0F3F2"/>
<path transform="translate(1418,1260)" d="m0 0 1 2-2 4h-9l3-2z" fill="#D0E3EA"/>
<path transform="translate(1501,1260)" d="m0 0h3v7l-5-1z" fill="#567D8D"/>
<path transform="translate(1411,1234)" d="m0 0h1v8l-1 4h-3l2-9z" fill="#D2E2E8"/>
<path transform="translate(468,1198)" d="m0 0 1 3 2 1 1-1 2 1-2 4-4 1z" fill="#5A6266"/>
<path transform="translate(705,973)" d="m0 0 2 3-2 5h-3l-1-5z" fill="#BA7B73"/>
<path transform="translate(1211,844)" d="m0 0h3l-3 12-2-1 1-6z" fill="#567D8D"/>
<path transform="translate(1176,817)" d="m0 0h4l-1 7h-3l-1-4z" fill="#A8827E"/>
<path transform="translate(623,807)" d="m0 0h2v11l-3 1z" fill="#4A5C64"/>
<path transform="translate(863,811)" d="m0 0h3v7h-4v-6z" fill="#93B5D9"/>
<path transform="translate(692,810)" d="m0 0h3v4h-2v2h2v3l-4-2v-6z" fill="#567A89"/>
<path transform="translate(666,708)" d="m0 0 1 2-2 10h-3l2-11z" fill="#596B73"/>
<path transform="translate(1350,1305)" d="m0 0 4 1v5l-5 1z" fill="#D0A781"/>
<path transform="translate(1356,1288)" d="m0 0 4 1 1 3-4 1-5-1z" fill="#B87C73"/>
<path transform="translate(1451,1197)" d="m0 0h9l3 2-2 2-4-1-6-2z" fill="#252323"/>
<path transform="translate(431,1116)" d="m0 0 11 1-2 3-12-1z" fill="#586F7A"/>
<path transform="translate(552,1098)" d="m0 0h11l-3 2-12 1z" fill="#313335"/>
<path transform="translate(460,950)" d="m0 0 3 1-4 4-4 1v-4z" fill="#384044"/>
<path transform="translate(1231,844)" d="m0 0 3 1-2 10-2-1v-9z" fill="#F2F7F9"/>
<path transform="translate(1278,815)" d="m0 0h2v9l-3 1v-9z" fill="#B37872"/>
<path transform="translate(810,758)" d="m0 0h2v9h-3v-8z" fill="#C9E7F5"/>
<path transform="translate(724,754)" d="m0 0 2 3-1 11-2-1v-11z" fill="#C9E7F5"/>
<path transform="translate(623,756)" d="m0 0h2l1 11h-3l-1-10z" fill="#D3EBF6"/>
<path transform="translate(650,709)" d="m0 0 4 1v9l-4-1z" fill="#57676E"/>
<path transform="translate(587,709)" d="m0 0h4l-2 9h-2z" fill="#55717D"/>
</svg>
